<svg xmlns="http://www.w3.org/2000/svg" width="720" height="180" viewBox="0 0 720 180" role="img" aria-label="Audio waveform"><rect width="100%" height="100%" fill="#ffffff"/><g stroke="#1d4ed8" stroke-width="1" stroke-linecap="butt"><line x1="0.5" y1="73.713" x2="0.5" y2="92.255"/><line x1="1.5" y1="86.446" x2="1.5" y2="108.468"/><line x1="2.5" y1="70.851" x2="2.5" y2="89.558"/><line x1="3.5" y1="87.361" x2="3.5" y2="108.603"/><line x1="4.5" y1="72.315" x2="4.5" y2="95.812"/><line x1="5.5" y1="76.816" x2="5.5" y2="106.142"/><line x1="6.5" y1="75.55" x2="6.5" y2="102.909"/><line x1="7.5" y1="78.536" x2="7.5" y2="104.917"/><line x1="8.5" y1="73.985" x2="8.5" y2="100.459"/><line x1="9.5" y1="73.564" x2="9.5" y2="106.479"/><line x1="10.5" y1="73.13" x2="10.5" y2="106.386"/><line x1="11.5" y1="70.417" x2="11.5" y2="102.777"/><line x1="12.5" y1="83.213" x2="12.5" y2="107.625"/><line x1="13.5" y1="73.628" x2="13.5" y2="103.357"/><line x1="14.5" y1="74.259" x2="14.5" y2="107.271"/><line x1="15.5" y1="77.283" x2="15.5" y2="104.142"/><line x1="16.5" y1="70.703" x2="16.5" y2="103.348"/><line x1="17.5" y1="79.676" x2="17.5" y2="109.229"/><line x1="18.5" y1="70.277" x2="18.5" y2="105.897"/><line x1="19.5" y1="73.109" x2="19.5" y2="112.025"/><line x1="20.5" y1="74.99" x2="20.5" y2="109.237"/><line x1="21.5" y1="74.377" x2="21.5" y2="103.282"/><line x1="22.5" y1="68.843" x2="22.5" y2="106.098"/><line x1="23.5" y1="81.31" x2="23.5" y2="109.808"/><line x1="24.5" y1="70.988" x2="24.5" y2="104.398"/><line x1="25.5" y1="71.881" x2="25.5" y2="104.277"/><line x1="26.5" y1="82.06" x2="26.5" y2="111.412"/><line x1="27.5" y1="70.524" x2="27.5" y2="102.187"/><line x1="28.5" y1="70.516" x2="28.5" y2="105.054"/><line x1="29.5" y1="83.04" x2="29.5" y2="110.143"/><line x1="30.5" y1="70.59" x2="30.5" y2="106.521"/><line x1="31.5" y1="71.598" x2="31.5" y2="100.467"/><line x1="32.5" y1="75.721" x2="32.5" y2="111.212"/><line x1="33.5" y1="78.192" x2="33.5" y2="107.045"/><line x1="34.5" y1="68.423" x2="34.5" y2="103.387"/><line x1="35.5" y1="71.189" x2="35.5" y2="102.206"/><line x1="36.5" y1="77.448" x2="36.5" y2="108.811"/><line x1="37.5" y1="79.689" x2="37.5" y2="109.611"/><line x1="38.5" y1="72.779" x2="38.5" y2="105.576"/><line x1="39.5" y1="70.238" x2="39.5" y2="99.693"/><line x1="40.5" y1="71.013" x2="40.5" y2="103.313"/><line x1="41.5" y1="77.272" x2="41.5" y2="108.029"/><line x1="42.5" y1="74.66" x2="42.5" y2="109.932"/><line x1="43.5" y1="78.5" x2="43.5" y2="106.551"/><line x1="44.5" y1="74.496" x2="44.5" y2="109.924"/><line x1="45.5" y1="72.153" x2="45.5" y2="108.471"/><line x1="46.5" y1="72.013" x2="46.5" y2="106.161"/><line x1="47.5" y1="70.431" x2="47.5" y2="103.914"/><line x1="48.5" y1="69.703" x2="48.5" y2="101.942"/><line x1="49.5" y1="69.45" x2="49.5" y2="100.423"/><line x1="50.5" y1="69.395" x2="50.5" y2="100.599"/><line x1="51.5" y1="69.414" x2="51.5" y2="101.308"/><line x1="52.5" y1="71.927" x2="52.5" y2="101.28"/><line x1="53.5" y1="69.53" x2="53.5" y2="100.627"/><line x1="54.5" y1="69.219" x2="54.5" y2="101.102"/><line x1="55.5" y1="69.244" x2="55.5" y2="102.81"/><line x1="56.5" y1="69.697" x2="56.5" y2="105.161"/><line x1="57.5" y1="70.653" x2="57.5" y2="105.353"/><line x1="58.5" y1="72.567" x2="58.5" y2="107.367"/><line x1="59.5" y1="75.905" x2="59.5" y2="109.655"/><line x1="60.5" y1="79.676" x2="60.5" y2="111.08"/><line x1="61.5" y1="74.619" x2="61.5" y2="110.951"/><line x1="62.5" y1="70.565" x2="62.5" y2="108.715"/><line x1="63.5" y1="72.227" x2="63.5" y2="103.961"/><line x1="64.5" y1="68.67" x2="64.5" y2="102.233"/><line x1="65.5" y1="70.076" x2="65.5" y2="108.504"/><line x1="66.5" y1="74.99" x2="66.5" y2="111.552"/><line x1="67.5" y1="77.72" x2="67.5" y2="109.688"/><line x1="68.5" y1="70.521" x2="68.5" y2="103.065"/><line x1="69.5" y1="68.503" x2="69.5" y2="105.548"/><line x1="70.5" y1="72.433" x2="70.5" y2="111.245"/><line x1="71.5" y1="78.761" x2="71.5" y2="110.116"/><line x1="72.5" y1="69.851" x2="72.5" y2="100.874"/><line x1="73.5" y1="68.763" x2="73.5" y2="108.715"/><line x1="74.5" y1="76.825" x2="74.5" y2="112.072"/><line x1="75.5" y1="72.578" x2="75.5" y2="104.477"/><line x1="76.5" y1="67.86" x2="76.5" y2="107.133"/><line x1="77.5" y1="75.262" x2="77.5" y2="112.179"/><line x1="78.5" y1="72.447" x2="78.5" y2="104.002"/><line x1="79.5" y1="67.755" x2="79.5" y2="108.669"/><line x1="80.5" y1="69.703" x2="80.5" y2="111.78"/><line x1="81.5" y1="69.582" x2="81.5" y2="99.366"/><line x1="82.5" y1="69.678" x2="82.5" y2="111.89"/><line x1="83.5" y1="67.25" x2="83.5" y2="108.114"/><line x1="84.5" y1="76.481" x2="84.5" y2="106.817"/><line x1="85.5" y1="69.082" x2="85.5" y2="112.437"/><line x1="86.5" y1="70.785" x2="86.5" y2="112.874"/><line x1="87.5" y1="73.073" x2="87.5" y2="112.786"/><line x1="88.5" y1="67.978" x2="88.5" y2="112.143"/><line x1="89.5" y1="76.998" x2="89.5" y2="106.46"/><line x1="90.5" y1="66.668" x2="90.5" y2="110.739"/><line x1="91.5" y1="66.289" x2="91.5" y2="108.504"/><line x1="92.5" y1="73.817" x2="92.5" y2="109.8"/><line x1="93.5" y1="66.322" x2="93.5" y2="109.034"/><line x1="94.5" y1="80.563" x2="94.5" y2="109.698"/><line x1="95.5" y1="66.006" x2="95.5" y2="110.739"/><line x1="96.5" y1="79.014" x2="96.5" y2="107.144"/><line x1="97.5" y1="66.522" x2="97.5" y2="112.179"/><line x1="98.5" y1="67.582" x2="98.5" y2="103.983"/><line x1="99.5" y1="71.765" x2="99.5" y2="113.942"/><line x1="100.5" y1="70.032" x2="100.5" y2="110.836"/><line x1="101.5" y1="67.061" x2="101.5" y2="107.567"/><line x1="102.5" y1="67.308" x2="102.5" y2="111.105"/><line x1="103.5" y1="69.947" x2="103.5" y2="112.747"/><line x1="104.5" y1="70.719" x2="104.5" y2="115.576"/><line x1="105.5" y1="65.855" x2="105.5" y2="112.05"/><line x1="106.5" y1="67.338" x2="106.5" y2="112.755"/><line x1="107.5" y1="61.6" x2="107.5" y2="114.818"/><line x1="108.5" y1="65.121" x2="108.5" y2="109.77"/><line x1="109.5" y1="66.92" x2="109.5" y2="118.424"/><line x1="110.5" y1="73.315" x2="110.5" y2="110.731"/><line x1="111.5" y1="65.182" x2="111.5" y2="114.272"/><line x1="112.5" y1="77.198" x2="112.5" y2="111.745"/><line x1="113.5" y1="61.444" x2="113.5" y2="117.672"/><line x1="114.5" y1="71.936" x2="114.5" y2="103.395"/><line x1="115.5" y1="66.959" x2="115.5" y2="110.836"/><line x1="116.5" y1="64.454" x2="116.5" y2="118.172"/><line x1="117.5" y1="68.148" x2="117.5" y2="112.234"/><line x1="118.5" y1="62.894" x2="118.5" y2="112.997"/><line x1="119.5" y1="75.243" x2="119.5" y2="112.088"/><line x1="120.5" y1="65.462" x2="120.5" y2="115.788"/><line x1="121.5" y1="67.791" x2="121.5" y2="116.815"/><line x1="122.5" y1="73.059" x2="122.5" y2="113.159"/><line x1="123.5" y1="61.32" x2="123.5" y2="116.548"/><line x1="124.5" y1="76.05" x2="124.5" y2="113.195"/><line x1="125.5" y1="73.43" x2="125.5" y2="112.816"/><line x1="126.5" y1="63.982" x2="126.5" y2="117.348"/><line x1="127.5" y1="76.1" x2="127.5" y2="110.264"/><line x1="128.5" y1="70.848" x2="128.5" y2="111.967"/><line x1="129.5" y1="63.809" x2="129.5" y2="117.746"/><line x1="130.5" y1="72.787" x2="130.5" y2="112.967"/><line x1="131.5" y1="67.195" x2="131.5" y2="107.979"/><line x1="132.5" y1="61.85" x2="132.5" y2="116.812"/><line x1="133.5" y1="66.121" x2="133.5" y2="109.199"/><line x1="134.5" y1="75.064" x2="134.5" y2="105.076"/><line x1="135.5" y1="65.196" x2="135.5" y2="117.26"/><line x1="136.5" y1="61.773" x2="136.5" y2="117.499"/><line x1="137.5" y1="74.658" x2="137.5" y2="110.132"/><line x1="138.5" y1="67.835" x2="138.5" y2="107.07"/><line x1="139.5" y1="62.021" x2="139.5" y2="118.427"/><line x1="140.5" y1="62.147" x2="140.5" y2="115.815"/><line x1="141.5" y1="76.492" x2="141.5" y2="107.828"/><line x1="142.5" y1="67.953" x2="142.5" y2="107.765"/><line x1="143.5" y1="62.328" x2="143.5" y2="118.77"/><line x1="144.5" y1="61.188" x2="144.5" y2="117.798"/><line x1="145.5" y1="71.021" x2="145.5" y2="112.69"/><line x1="146.5" y1="75.506" x2="146.5" y2="101.698"/><line x1="147.5" y1="68.033" x2="147.5" y2="115.024"/><line x1="148.5" y1="60.134" x2="148.5" y2="119.07"/><line x1="149.5" y1="61.153" x2="149.5" y2="119.789"/><line x1="150.5" y1="65.344" x2="150.5" y2="111.657"/><line x1="151.5" y1="77.467" x2="151.5" y2="104.969"/><line x1="152.5" y1="71.576" x2="152.5" y2="106.095"/><line x1="153.5" y1="61.891" x2="153.5" y2="116.279"/><line x1="154.5" y1="59.326" x2="154.5" y2="120.97"/><line x1="155.5" y1="59.425" x2="155.5" y2="119.523"/><line x1="156.5" y1="65.284" x2="156.5" y2="116.474"/><line x1="157.5" y1="69.837" x2="157.5" y2="107.699"/><line x1="158.5" y1="77.937" x2="158.5" y2="103.282"/><line x1="159.5" y1="73.551" x2="159.5" y2="107.622"/><line x1="160.5" y1="65.459" x2="160.5" y2="112.338"/><line x1="161.5" y1="62.323" x2="161.5" y2="118.361"/><line x1="162.5" y1="58.975" x2="162.5" y2="120.924"/><line x1="163.5" y1="57.936" x2="163.5" y2="121.674"/><line x1="164.5" y1="59.359" x2="164.5" y2="121.47"/><line x1="165.5" y1="60.441" x2="165.5" y2="118.386"/><line x1="166.5" y1="64.616" x2="166.5" y2="116.768"/><line x1="167.5" y1="68.906" x2="167.5" y2="112.094"/><line x1="168.5" y1="71.076" x2="168.5" y2="107.987"/><line x1="169.5" y1="74.655" x2="169.5" y2="106.219"/><line x1="170.5" y1="76.687" x2="170.5" y2="103.417"/><line x1="171.5" y1="77.401" x2="171.5" y2="102.577"/><line x1="172.5" y1="77.44" x2="172.5" y2="102.686"/><line x1="173.5" y1="77.119" x2="173.5" y2="103.175"/><line x1="174.5" y1="76.473" x2="174.5" y2="103.387"/><line x1="175.5" y1="76.262" x2="175.5" y2="103.749"/><line x1="176.5" y1="76.38" x2="176.5" y2="103.865"/><line x1="177.5" y1="76.41" x2="177.5" y2="103.708"/><line x1="178.5" y1="76.528" x2="178.5" y2="103.203"/><line x1="179.5" y1="77.039" x2="179.5" y2="103.162"/><line x1="180.5" y1="77.182" x2="180.5" y2="102.986"/><line x1="181.5" y1="76.176" x2="181.5" y2="104.137"/><line x1="182.5" y1="73.759" x2="182.5" y2="106.68"/><line x1="183.5" y1="70.076" x2="183.5" y2="108.984"/><line x1="184.5" y1="65.599" x2="184.5" y2="113.305"/><line x1="185.5" y1="63.528" x2="185.5" y2="117.963"/><line x1="186.5" y1="59.189" x2="186.5" y2="122.124"/><line x1="187.5" y1="56.085" x2="187.5" y2="122.943"/><line x1="188.5" y1="54.91" x2="188.5" y2="124.827"/><line x1="189.5" y1="55.226" x2="189.5" y2="125.063"/><line x1="190.5" y1="57.832" x2="190.5" y2="124.06"/><line x1="191.5" y1="60.392" x2="191.5" y2="117.573"/><line x1="192.5" y1="69.269" x2="192.5" y2="111.846"/><line x1="193.5" y1="77.607" x2="193.5" y2="109.803"/><line x1="194.5" y1="66.467" x2="194.5" y2="112.223"/><line x1="195.5" y1="54.684" x2="195.5" y2="118.834"/><line x1="196.5" y1="51.158" x2="196.5" y2="123.181"/><line x1="197.5" y1="50.12" x2="197.5" y2="122.885"/><line x1="198.5" y1="51.339" x2="198.5" y2="116.521"/><line x1="199.5" y1="60.719" x2="199.5" y2="107.504"/><line x1="200.5" y1="74.666" x2="200.5" y2="109.322"/><line x1="201.5" y1="61.913" x2="201.5" y2="117.364"/><line x1="202.5" y1="49.639" x2="202.5" y2="123.228"/><line x1="203.5" y1="48.159" x2="203.5" y2="122.959"/><line x1="204.5" y1="56.302" x2="204.5" y2="115.746"/><line x1="205.5" y1="65.198" x2="205.5" y2="109.775"/><line x1="206.5" y1="55.173" x2="206.5" y2="114.332"/><line x1="207.5" y1="48.974" x2="207.5" y2="121.841"/><line x1="208.5" y1="47.439" x2="208.5" y2="124.45"/><line x1="209.5" y1="60.263" x2="209.5" y2="118.386"/><line x1="210.5" y1="67.659" x2="210.5" y2="106.342"/><line x1="211.5" y1="54.218" x2="211.5" y2="129.938"/><line x1="212.5" y1="54.308" x2="212.5" y2="133.231"/><line x1="213.5" y1="64.061" x2="213.5" y2="118.367"/><line x1="214.5" y1="70.258" x2="214.5" y2="119.932"/><line x1="215.5" y1="53.635" x2="215.5" y2="128.611"/><line x1="216.5" y1="51.356" x2="216.5" y2="126.389"/><line x1="217.5" y1="66.558" x2="217.5" y2="108.828"/><line x1="218.5" y1="61.798" x2="218.5" y2="123.843"/><line x1="219.5" y1="51.251" x2="219.5" y2="127.864"/><line x1="220.5" y1="58.076" x2="220.5" y2="117.419"/><line x1="221.5" y1="68.052" x2="221.5" y2="117.241"/><line x1="222.5" y1="51.776" x2="222.5" y2="129.207"/><line x1="223.5" y1="53.361" x2="223.5" y2="121.531"/><line x1="224.5" y1="58.629" x2="224.5" y2="114.521"/><line x1="225.5" y1="50.941" x2="225.5" y2="129.908"/><line x1="226.5" y1="53.49" x2="226.5" y2="123.574"/><line x1="227.5" y1="58.412" x2="227.5" y2="116.131"/><line x1="228.5" y1="51.078" x2="228.5" y2="129.842"/><line x1="229.5" y1="66.017" x2="229.5" y2="121.328"/><line x1="230.5" y1="53.899" x2="230.5" y2="125.78"/><line x1="231.5" y1="50.375" x2="231.5" y2="129.927"/><line x1="232.5" y1="71.323" x2="232.5" y2="115.148"/><line x1="233.5" y1="49.763" x2="233.5" y2="130.152"/><line x1="234.5" y1="53.52" x2="234.5" y2="120.624"/><line x1="235.5" y1="50.361" x2="235.5" y2="124.667"/><line x1="236.5" y1="51.63" x2="236.5" y2="130.924"/><line x1="237.5" y1="63.196" x2="237.5" y2="109.259"/><line x1="238.5" y1="51.476" x2="238.5" y2="131.586"/><line x1="239.5" y1="64.215" x2="239.5" y2="123.291"/><line x1="240.5" y1="49.323" x2="240.5" y2="130.943"/><line x1="241.5" y1="51.924" x2="241.5" y2="121.871"/><line x1="242.5" y1="48.076" x2="242.5" y2="127.95"/><line x1="243.5" y1="54.662" x2="243.5" y2="129.606"/><line x1="244.5" y1="53.646" x2="244.5" y2="130.199"/><line x1="245.5" y1="48.153" x2="245.5" y2="127.274"/><line x1="246.5" y1="53.215" x2="246.5" y2="124.774"/><line x1="247.5" y1="48.689" x2="247.5" y2="132.119"/><line x1="248.5" y1="54.119" x2="248.5" y2="126.771"/><line x1="249.5" y1="47.972" x2="249.5" y2="131.929"/><line x1="250.5" y1="59.656" x2="250.5" y2="127.711"/><line x1="251.5" y1="47.914" x2="251.5" y2="131.298"/><line x1="252.5" y1="48.411" x2="252.5" y2="124.802"/><line x1="253.5" y1="52.883" x2="253.5" y2="132.473"/><line x1="254.5" y1="50.677" x2="254.5" y2="131.94"/><line x1="255.5" y1="49.925" x2="255.5" y2="123.074"/><line x1="256.5" y1="48.93" x2="256.5" y2="131.83"/><line x1="257.5" y1="65.388" x2="257.5" y2="124.912"/><line x1="258.5" y1="48.675" x2="258.5" y2="132.663"/><line x1="259.5" y1="52.55" x2="259.5" y2="117.543"/><line x1="260.5" y1="47.362" x2="260.5" y2="133.391"/><line x1="261.5" y1="50.273" x2="261.5" y2="132.481"/><line x1="262.5" y1="49.636" x2="262.5" y2="122.602"/><line x1="263.5" y1="49.76" x2="263.5" y2="133.841"/><line x1="264.5" y1="52.877" x2="264.5" y2="125.64"/><line x1="265.5" y1="46.906" x2="265.5" y2="133.728"/><line x1="266.5" y1="45.475" x2="266.5" y2="131.399"/><line x1="267.5" y1="54.069" x2="267.5" y2="114.769"/><line x1="268.5" y1="46.489" x2="268.5" y2="133.308"/><line x1="269.5" y1="49.768" x2="269.5" y2="133.022"/><line x1="270.5" y1="52.185" x2="270.5" y2="117.782"/><line x1="271.5" y1="45.206" x2="271.5" y2="131.385"/><line x1="272.5" y1="51.985" x2="272.5" y2="133.849"/><line x1="273.5" y1="48.452" x2="273.5" y2="121.396"/><line x1="274.5" y1="45.209" x2="274.5" y2="133.314"/><line x1="275.5" y1="47.126" x2="275.5" y2="134"/><line x1="276.5" y1="63.982" x2="276.5" y2="127.018"/><line x1="277.5" y1="46.901" x2="277.5" y2="131.699"/><line x1="278.5" y1="49.455" x2="278.5" y2="133.687"/><line x1="279.5" y1="60.18" x2="279.5" y2="130.246"/><line x1="280.5" y1="46.45" x2="280.5" y2="133.918"/><line x1="281.5" y1="46.752" x2="281.5" y2="128.979"/><line x1="282.5" y1="45.025" x2="282.5" y2="140.867"/><line x1="283.5" y1="55.311" x2="283.5" y2="129.056"/><line x1="284.5" y1="49.356" x2="284.5" y2="136.165"/><line x1="285.5" y1="39.891" x2="285.5" y2="137.65"/><line x1="286.5" y1="44.629" x2="286.5" y2="129.479"/><line x1="287.5" y1="52.828" x2="287.5" y2="139.834"/><line x1="288.5" y1="40.15" x2="288.5" y2="119.592"/><line x1="289.5" y1="50.534" x2="289.5" y2="136.038"/><line x1="290.5" y1="44.692" x2="290.5" y2="140.562"/><line x1="291.5" y1="40.314" x2="291.5" y2="135.494"/><line x1="292.5" y1="49.524" x2="292.5" y2="126.148"/><line x1="293.5" y1="49.035" x2="293.5" y2="129.683"/><line x1="294.5" y1="43.547" x2="294.5" y2="140.142"/><line x1="295.5" y1="48.384" x2="295.5" y2="143.171"/><line x1="296.5" y1="47.244" x2="296.5" y2="134.599"/><line x1="297.5" y1="51.935" x2="297.5" y2="128.702"/><line x1="298.5" y1="43.388" x2="298.5" y2="134.745"/><line x1="299.5" y1="40.465" x2="299.5" y2="127.598"/><line x1="300.5" y1="39.74" x2="300.5" y2="141.334"/><line x1="301.5" y1="48.233" x2="301.5" y2="141.262"/><line x1="302.5" y1="50.529" x2="302.5" y2="136.162"/><line x1="303.5" y1="48.142" x2="303.5" y2="129.018"/><line x1="304.5" y1="47.021" x2="304.5" y2="130.155"/><line x1="305.5" y1="50.092" x2="305.5" y2="137.31"/><line x1="306.5" y1="48.01" x2="306.5" y2="121.424"/><line x1="307.5" y1="44.841" x2="307.5" y2="136.815"/><line x1="308.5" y1="53.795" x2="308.5" y2="135.14"/><line x1="309.5" y1="44.572" x2="309.5" y2="134.613"/><line x1="310.5" y1="43.514" x2="310.5" y2="131.193"/><line x1="311.5" y1="42.877" x2="311.5" y2="132.984"/><line x1="312.5" y1="44.89" x2="312.5" y2="134.756"/><line x1="313.5" y1="49.224" x2="313.5" y2="135.58"/><line x1="314.5" y1="44.692" x2="314.5" y2="134.58"/><line x1="315.5" y1="42.031" x2="315.5" y2="130.482"/><line x1="316.5" y1="42.492" x2="316.5" y2="132.056"/><line x1="317.5" y1="47.112" x2="317.5" y2="136.879"/><line x1="318.5" y1="47.208" x2="318.5" y2="137.62"/><line x1="319.5" y1="43.555" x2="319.5" y2="132.674"/><line x1="320.5" y1="42.742" x2="320.5" y2="133.662"/><line x1="321.5" y1="50.056" x2="321.5" y2="137.634"/><line x1="322.5" y1="45.316" x2="322.5" y2="135.632"/><line x1="323.5" y1="41.729" x2="323.5" y2="130.93"/><line x1="324.5" y1="48.963" x2="324.5" y2="138.329"/><line x1="325.5" y1="43.643" x2="325.5" y2="134.099"/><line x1="326.5" y1="44.011" x2="326.5" y2="132.926"/><line x1="327.5" y1="49.081" x2="327.5" y2="136.736"/><line x1="328.5" y1="43.627" x2="328.5" y2="133.786"/><line x1="329.5" y1="45.181" x2="329.5" y2="134.956"/><line x1="330.5" y1="47.439" x2="330.5" y2="136.939"/><line x1="331.5" y1="41.476" x2="331.5" y2="128.617"/><line x1="332.5" y1="44.242" x2="332.5" y2="138.277"/><line x1="333.5" y1="47.546" x2="333.5" y2="135.503"/><line x1="334.5" y1="44.789" x2="334.5" y2="137.203"/><line x1="335.5" y1="41.671" x2="335.5" y2="131.097"/><line x1="336.5" y1="48.831" x2="336.5" y2="136.697"/><line x1="337.5" y1="41.004" x2="337.5" y2="129.408"/><line x1="338.5" y1="50.966" x2="338.5" y2="136.593"/><line x1="339.5" y1="41.127" x2="339.5" y2="131.031"/><line x1="340.5" y1="51.051" x2="340.5" y2="137.667"/><line x1="341.5" y1="42.174" x2="341.5" y2="138.933"/><line x1="342.5" y1="42.751" x2="342.5" y2="129.001"/><line x1="343.5" y1="49.595" x2="343.5" y2="137.541"/><line x1="344.5" y1="40.952" x2="344.5" y2="129.933"/><line x1="345.5" y1="49.922" x2="345.5" y2="139.026"/><line x1="346.5" y1="42.02" x2="346.5" y2="131.111"/><line x1="347.5" y1="44.58" x2="347.5" y2="136.321"/><line x1="348.5" y1="46.884" x2="348.5" y2="135.261"/><line x1="349.5" y1="45.813" x2="349.5" y2="134.094"/><line x1="350.5" y1="44.643" x2="350.5" y2="132.209"/><line x1="351.5" y1="50.74" x2="351.5" y2="135.813"/><line x1="352.5" y1="43.489" x2="352.5" y2="136.813"/><line x1="353.5" y1="43.717" x2="353.5" y2="135.618"/><line x1="354.5" y1="42.009" x2="354.5" y2="134.44"/><line x1="355.5" y1="49.265" x2="355.5" y2="138.702"/><line x1="356.5" y1="42.948" x2="356.5" y2="135.873"/><line x1="357.5" y1="45.365" x2="357.5" y2="137.81"/><line x1="358.5" y1="41.852" x2="358.5" y2="129.422"/><line x1="359.5" y1="49.395" x2="359.5" y2="136.739"/><line x1="360.5" y1="43.503" x2="360.5" y2="129.933"/><line x1="361.5" y1="49.433" x2="361.5" y2="138.722"/><line x1="362.5" y1="44.363" x2="362.5" y2="134.635"/><line x1="363.5" y1="41.737" x2="363.5" y2="137.752"/><line x1="364.5" y1="44.357" x2="364.5" y2="136.288"/><line x1="365.5" y1="43.187" x2="365.5" y2="127.502"/><line x1="366.5" y1="46.637" x2="366.5" y2="138.271"/><line x1="367.5" y1="41.808" x2="367.5" y2="129.35"/><line x1="368.5" y1="43.756" x2="368.5" y2="136.046"/><line x1="369.5" y1="48.419" x2="369.5" y2="137.159"/><line x1="370.5" y1="35.173" x2="370.5" y2="131.234"/><line x1="371.5" y1="52.935" x2="371.5" y2="130.586"/><line x1="372.5" y1="41.638" x2="372.5" y2="140.144"/><line x1="373.5" y1="46.78" x2="373.5" y2="134.313"/><line x1="374.5" y1="41.682" x2="374.5" y2="144.726"/><line x1="375.5" y1="39.749" x2="375.5" y2="133.209"/><line x1="376.5" y1="35.332" x2="376.5" y2="134.091"/><line x1="377.5" y1="52.734" x2="377.5" y2="138.183"/><line x1="378.5" y1="40.399" x2="378.5" y2="139.411"/><line x1="379.5" y1="46.283" x2="379.5" y2="123.228"/><line x1="380.5" y1="45.747" x2="380.5" y2="142.534"/><line x1="381.5" y1="52.446" x2="381.5" y2="130.04"/><line x1="382.5" y1="36.683" x2="382.5" y2="130.034"/><line x1="383.5" y1="51.982" x2="383.5" y2="128.367"/><line x1="384.5" y1="51.649" x2="384.5" y2="140.79"/><line x1="385.5" y1="42.253" x2="385.5" y2="131.347"/><line x1="386.5" y1="37.12" x2="386.5" y2="130.053"/><line x1="387.5" y1="47.535" x2="387.5" y2="139.85"/><line x1="388.5" y1="56.909" x2="388.5" y2="135.324"/><line x1="389.5" y1="39.603" x2="389.5" y2="138.304"/><line x1="390.5" y1="45.264" x2="390.5" y2="122.964"/><line x1="391.5" y1="44.659" x2="391.5" y2="142.96"/><line x1="392.5" y1="49.598" x2="392.5" y2="143.157"/><line x1="393.5" y1="46.758" x2="393.5" y2="132.737"/><line x1="394.5" y1="35.87" x2="394.5" y2="130.754"/><line x1="395.5" y1="42.819" x2="395.5" y2="133.075"/><line x1="396.5" y1="46.934" x2="396.5" y2="134.852"/><line x1="397.5" y1="55.25" x2="397.5" y2="137.667"/><line x1="398.5" y1="47.442" x2="398.5" y2="134.923"/><line x1="399.5" y1="42.317" x2="399.5" y2="127.288"/><line x1="400.5" y1="42.435" x2="400.5" y2="125.129"/><line x1="401.5" y1="47.791" x2="401.5" y2="132.874"/><line x1="402.5" y1="47.206" x2="402.5" y2="137.604"/><line x1="403.5" y1="54.904" x2="403.5" y2="134.434"/><line x1="404.5" y1="47.903" x2="404.5" y2="137.617"/><line x1="405.5" y1="46.989" x2="405.5" y2="132.459"/><line x1="406.5" y1="42.344" x2="406.5" y2="126.48"/><line x1="407.5" y1="43.665" x2="407.5" y2="126.604"/><line x1="408.5" y1="43.13" x2="408.5" y2="127.013"/><line x1="409.5" y1="44.865" x2="409.5" y2="134.297"/><line x1="410.5" y1="49.37" x2="410.5" y2="134.135"/><line x1="411.5" y1="52.88" x2="411.5" y2="136.579"/><line x1="412.5" y1="55.725" x2="412.5" y2="137.738"/><line x1="413.5" y1="52.63" x2="413.5" y2="135.876"/><line x1="414.5" y1="49.617" x2="414.5" y2="133.3"/><line x1="415.5" y1="49.293" x2="415.5" y2="133.855"/><line x1="416.5" y1="49.551" x2="416.5" y2="133.105"/><line x1="417.5" y1="46.373" x2="417.5" y2="131.006"/><line x1="418.5" y1="44.745" x2="418.5" y2="129.795"/><line x1="419.5" y1="44.099" x2="419.5" y2="127.543"/><line x1="420.5" y1="44.05" x2="420.5" y2="125.89"/><line x1="421.5" y1="44.171" x2="421.5" y2="124.994"/><line x1="422.5" y1="45.014" x2="422.5" y2="124.791"/><line x1="423.5" y1="47.005" x2="423.5" y2="124.623"/><line x1="424.5" y1="44.756" x2="424.5" y2="124.162"/><line x1="425.5" y1="43.259" x2="425.5" y2="123.508"/><line x1="426.5" y1="43.369" x2="426.5" y2="124.17"/><line x1="427.5" y1="46.31" x2="427.5" y2="126.573"/><line x1="428.5" y1="44.734" x2="428.5" y2="126.222"/><line x1="429.5" y1="44.286" x2="429.5" y2="127.447"/><line x1="430.5" y1="47.208" x2="430.5" y2="130.023"/><line x1="431.5" y1="46.615" x2="431.5" y2="131.331"/><line x1="432.5" y1="48.686" x2="432.5" y2="133.349"/><line x1="433.5" y1="50.169" x2="433.5" y2="132.753"/><line x1="434.5" y1="54.962" x2="434.5" y2="135.489"/><line x1="435.5" y1="57.887" x2="435.5" y2="136.104"/><line x1="436.5" y1="53.605" x2="436.5" y2="133.039"/><line x1="437.5" y1="53.221" x2="437.5" y2="134.39"/><line x1="438.5" y1="49.084" x2="438.5" y2="131.048"/><line x1="439.5" y1="46.129" x2="439.5" y2="126.554"/><line x1="440.5" y1="44.885" x2="440.5" y2="120.55"/><line x1="441.5" y1="45.483" x2="441.5" y2="126.189"/><line x1="442.5" y1="47.252" x2="442.5" y2="131.314"/><line x1="443.5" y1="51.595" x2="443.5" y2="132.715"/><line x1="444.5" y1="59.087" x2="444.5" y2="134.585"/><line x1="445.5" y1="52.015" x2="445.5" y2="134.852"/><line x1="446.5" y1="47.101" x2="446.5" y2="131.006"/><line x1="447.5" y1="46.467" x2="447.5" y2="122.165"/><line x1="448.5" y1="45.459" x2="448.5" y2="128.364"/><line x1="449.5" y1="51.812" x2="449.5" y2="131.067"/><line x1="450.5" y1="53.391" x2="450.5" y2="134.67"/><line x1="451.5" y1="52.715" x2="451.5" y2="133.613"/><line x1="452.5" y1="48.106" x2="452.5" y2="129.683"/><line x1="453.5" y1="45.483" x2="453.5" y2="123.242"/><line x1="454.5" y1="51.24" x2="454.5" y2="129.298"/><line x1="455.5" y1="55.635" x2="455.5" y2="133.333"/><line x1="456.5" y1="50.894" x2="456.5" y2="133.261"/><line x1="457.5" y1="46.203" x2="457.5" y2="125.019"/><line x1="458.5" y1="47.942" x2="458.5" y2="128.515"/><line x1="459.5" y1="57.167" x2="459.5" y2="131.677"/><line x1="460.5" y1="53.026" x2="460.5" y2="127.529"/><line x1="461.5" y1="45.805" x2="461.5" y2="121.858"/><line x1="462.5" y1="46.17" x2="462.5" y2="134.283"/><line x1="463.5" y1="53.501" x2="463.5" y2="138.268"/><line x1="464.5" y1="44.316" x2="464.5" y2="135.599"/><line x1="465.5" y1="43.473" x2="465.5" y2="124.439"/><line x1="466.5" y1="50.872" x2="466.5" y2="129.012"/><line x1="467.5" y1="62.932" x2="467.5" y2="127.749"/><line x1="468.5" y1="52.177" x2="468.5" y2="116.919"/><line x1="469.5" y1="50.908" x2="469.5" y2="128.949"/><line x1="470.5" y1="53.981" x2="470.5" y2="133.278"/><line x1="471.5" y1="42.663" x2="471.5" y2="129.738"/><line x1="472.5" y1="43.613" x2="472.5" y2="129.029"/><line x1="473.5" y1="59.285" x2="473.5" y2="128.199"/><line x1="474.5" y1="55.838" x2="474.5" y2="121.718"/><line x1="475.5" y1="52.325" x2="475.5" y2="128.93"/><line x1="476.5" y1="46.59" x2="476.5" y2="134.569"/><line x1="477.5" y1="43.569" x2="477.5" y2="129.353"/><line x1="478.5" y1="47.574" x2="478.5" y2="126.244"/><line x1="479.5" y1="53.528" x2="479.5" y2="122.058"/><line x1="480.5" y1="49.43" x2="480.5" y2="128.779"/><line x1="481.5" y1="53.641" x2="481.5" y2="137.082"/><line x1="482.5" y1="49.612" x2="482.5" y2="126.236"/><line x1="483.5" y1="56.711" x2="483.5" y2="123.882"/><line x1="484.5" y1="52.105" x2="484.5" y2="126.961"/><line x1="485.5" y1="50.284" x2="485.5" y2="128.518"/><line x1="486.5" y1="54.066" x2="486.5" y2="128.686"/><line x1="487.5" y1="51.139" x2="487.5" y2="122.432"/><line x1="488.5" y1="60.293" x2="488.5" y2="129.847"/><line x1="489.5" y1="50.658" x2="489.5" y2="123.547"/><line x1="490.5" y1="53.1" x2="490.5" y2="127.222"/><line x1="491.5" y1="49.828" x2="491.5" y2="129.279"/><line x1="492.5" y1="57.115" x2="492.5" y2="129.081"/><line x1="493.5" y1="54.426" x2="493.5" y2="126.851"/><line x1="494.5" y1="51.229" x2="494.5" y2="127.274"/><line x1="495.5" y1="52.715" x2="495.5" y2="127.807"/><line x1="496.5" y1="53.006" x2="496.5" y2="129.674"/><line x1="497.5" y1="52.081" x2="497.5" y2="123.308"/><line x1="498.5" y1="52.405" x2="498.5" y2="126.766"/><line x1="499.5" y1="51.957" x2="499.5" y2="126.447"/><line x1="500.5" y1="52.435" x2="500.5" y2="128.238"/><line x1="501.5" y1="52.841" x2="501.5" y2="123"/><line x1="502.5" y1="59.156" x2="502.5" y2="128.392"/><line x1="503.5" y1="52.46" x2="503.5" y2="124.247"/><line x1="504.5" y1="55.882" x2="504.5" y2="127.359"/><line x1="505.5" y1="51.559" x2="505.5" y2="122.245"/><line x1="506.5" y1="58.016" x2="506.5" y2="124.233"/><line x1="507.5" y1="51.831" x2="507.5" y2="127.702"/><line x1="508.5" y1="56.176" x2="508.5" y2="122.209"/><line x1="509.5" y1="58.167" x2="509.5" y2="127.249"/><line x1="510.5" y1="51.949" x2="510.5" y2="124.39"/><line x1="511.5" y1="56.917" x2="511.5" y2="126.752"/><line x1="512.5" y1="55.981" x2="512.5" y2="121.69"/><line x1="513.5" y1="55.58" x2="513.5" y2="124.483"/><line x1="514.5" y1="54.437" x2="514.5" y2="126.082"/><line x1="515.5" y1="53.042" x2="515.5" y2="121.248"/><line x1="516.5" y1="52.8" x2="516.5" y2="127.277"/><line x1="517.5" y1="57.956" x2="517.5" y2="126.815"/><line x1="518.5" y1="53.852" x2="518.5" y2="120.182"/><line x1="519.5" y1="53.487" x2="519.5" y2="125.802"/><line x1="520.5" y1="56.283" x2="520.5" y2="126.779"/><line x1="521.5" y1="53.657" x2="521.5" y2="124.651"/><line x1="522.5" y1="55.02" x2="522.5" y2="124.895"/><line x1="523.5" y1="57.909" x2="523.5" y2="123.879"/><line x1="524.5" y1="57.783" x2="524.5" y2="121.759"/><line x1="525.5" y1="54.943" x2="525.5" y2="123.673"/><line x1="526.5" y1="57.03" x2="526.5" y2="125.997"/><line x1="527.5" y1="56.223" x2="527.5" y2="122.141"/><line x1="528.5" y1="56.093" x2="528.5" y2="121.564"/><line x1="529.5" y1="55.816" x2="529.5" y2="125.283"/><line x1="530.5" y1="58.458" x2="530.5" y2="121.418"/><line x1="531.5" y1="55.445" x2="531.5" y2="124.28"/><line x1="532.5" y1="57.706" x2="532.5" y2="122.036"/><line x1="533.5" y1="55.607" x2="533.5" y2="123.978"/><line x1="534.5" y1="59.384" x2="534.5" y2="120.979"/><line x1="535.5" y1="56.418" x2="535.5" y2="124.137"/><line x1="536.5" y1="57.494" x2="536.5" y2="116.513"/><line x1="537.5" y1="59.06" x2="537.5" y2="123.47"/><line x1="538.5" y1="62.622" x2="538.5" y2="123.102"/><line x1="539.5" y1="57.019" x2="539.5" y2="123.429"/><line x1="540.5" y1="56.621" x2="540.5" y2="117.114"/><line x1="541.5" y1="57.093" x2="541.5" y2="122.997"/><line x1="542.5" y1="57.865" x2="542.5" y2="122.459"/><line x1="543.5" y1="58.618" x2="543.5" y2="122.187"/><line x1="544.5" y1="59.288" x2="544.5" y2="122.305"/><line x1="545.5" y1="61.76" x2="545.5" y2="122.706"/><line x1="546.5" y1="60.06" x2="546.5" y2="123.033"/><line x1="547.5" y1="58.406" x2="547.5" y2="115.28"/><line x1="548.5" y1="57.637" x2="548.5" y2="122.687"/><line x1="549.5" y1="62.086" x2="549.5" y2="120.852"/><line x1="550.5" y1="58.76" x2="550.5" y2="117.298"/><line x1="551.5" y1="58.074" x2="551.5" y2="120.558"/><line x1="552.5" y1="55.352" x2="552.5" y2="125.711"/><line x1="553.5" y1="62.954" x2="553.5" y2="124.991"/><line x1="554.5" y1="58.239" x2="554.5" y2="123.555"/><line x1="555.5" y1="58.071" x2="555.5" y2="114.604"/><line x1="556.5" y1="53.696" x2="556.5" y2="118.938"/><line x1="557.5" y1="58.398" x2="557.5" y2="124.357"/><line x1="558.5" y1="61.361" x2="558.5" y2="113.08"/><line x1="559.5" y1="61.441" x2="559.5" y2="122.717"/><line x1="560.5" y1="59.7" x2="560.5" y2="121.654"/><line x1="561.5" y1="58.217" x2="561.5" y2="120.542"/><line x1="562.5" y1="56.179" x2="562.5" y2="115.906"/><line x1="563.5" y1="57.582" x2="563.5" y2="117.282"/><line x1="564.5" y1="66.069" x2="564.5" y2="121.602"/><line x1="565.5" y1="61.397" x2="565.5" y2="123.931"/><line x1="566.5" y1="60.831" x2="566.5" y2="123.467"/><line x1="567.5" y1="65.457" x2="567.5" y2="120.699"/><line x1="568.5" y1="59.796" x2="568.5" y2="116.233"/><line x1="569.5" y1="59.977" x2="569.5" y2="118.111"/><line x1="570.5" y1="61.405" x2="570.5" y2="118.746"/><line x1="571.5" y1="62.177" x2="571.5" y2="117.988"/><line x1="572.5" y1="58.065" x2="572.5" y2="119.344"/><line x1="573.5" y1="56.849" x2="573.5" y2="119.284"/><line x1="574.5" y1="66.764" x2="574.5" y2="116.727"/><line x1="575.5" y1="62.899" x2="575.5" y2="119.614"/><line x1="576.5" y1="60.537" x2="576.5" y2="116.941"/><line x1="577.5" y1="63.193" x2="577.5" y2="116.197"/><line x1="578.5" y1="63.968" x2="578.5" y2="119.092"/><line x1="579.5" y1="61.304" x2="579.5" y2="116.661"/><line x1="580.5" y1="64.113" x2="580.5" y2="114.895"/><line x1="581.5" y1="62.295" x2="581.5" y2="117.985"/><line x1="582.5" y1="63.803" x2="582.5" y2="118.304"/><line x1="583.5" y1="63.704" x2="583.5" y2="115.117"/><line x1="584.5" y1="62.919" x2="584.5" y2="118.26"/><line x1="585.5" y1="66.649" x2="585.5" y2="114.077"/><line x1="586.5" y1="62.998" x2="586.5" y2="118.298"/><line x1="587.5" y1="64.421" x2="587.5" y2="113.2"/><line x1="588.5" y1="62.943" x2="588.5" y2="117.809"/><line x1="589.5" y1="65.099" x2="589.5" y2="115.475"/><line x1="590.5" y1="63.636" x2="590.5" y2="115.351"/><line x1="591.5" y1="62.768" x2="591.5" y2="116.719"/><line x1="592.5" y1="68.027" x2="592.5" y2="112.698"/><line x1="593.5" y1="63.001" x2="593.5" y2="116.667"/><line x1="594.5" y1="63.918" x2="594.5" y2="114.085"/><line x1="595.5" y1="65.267" x2="595.5" y2="116.282"/><line x1="596.5" y1="67.516" x2="596.5" y2="113.659"/><line x1="597.5" y1="64.319" x2="597.5" y2="116.172"/><line x1="598.5" y1="63.427" x2="598.5" y2="115.079"/><line x1="599.5" y1="64.479" x2="599.5" y2="116.708"/><line x1="600.5" y1="64.655" x2="600.5" y2="115.746"/><line x1="601.5" y1="64.954" x2="601.5" y2="113.294"/><line x1="602.5" y1="65.555" x2="602.5" y2="114.269"/><line x1="603.5" y1="67.843" x2="603.5" y2="113.733"/><line x1="604.5" y1="66.357" x2="604.5" y2="114.14"/><line x1="605.5" y1="66.102" x2="605.5" y2="112.906"/><line x1="606.5" y1="65.413" x2="606.5" y2="113.492"/><line x1="607.5" y1="65.163" x2="607.5" y2="115.049"/><line x1="608.5" y1="67.533" x2="608.5" y2="113.857"/><line x1="609.5" y1="64.528" x2="609.5" y2="115.557"/><line x1="610.5" y1="66.454" x2="610.5" y2="114.782"/><line x1="611.5" y1="68.909" x2="611.5" y2="111.423"/><line x1="612.5" y1="68.59" x2="612.5" y2="111.113"/><line x1="613.5" y1="65.822" x2="613.5" y2="113.052"/><line x1="614.5" y1="65.149" x2="614.5" y2="114.793"/><line x1="615.5" y1="66.698" x2="615.5" y2="111.789"/><line x1="616.5" y1="65.352" x2="616.5" y2="113.895"/><line x1="617.5" y1="65.547" x2="617.5" y2="114.84"/><line x1="618.5" y1="67.956" x2="618.5" y2="112.162"/><line x1="619.5" y1="65.418" x2="619.5" y2="114.379"/><line x1="620.5" y1="66.981" x2="620.5" y2="114.126"/><line x1="621.5" y1="68.027" x2="621.5" y2="112.959"/><line x1="622.5" y1="66.723" x2="622.5" y2="112.849"/><line x1="623.5" y1="68.706" x2="623.5" y2="111.492"/><line x1="624.5" y1="67.541" x2="624.5" y2="110.413"/><line x1="625.5" y1="65.995" x2="625.5" y2="113.689"/><line x1="626.5" y1="68.261" x2="626.5" y2="109.201"/><line x1="627.5" y1="70.2" x2="627.5" y2="109.66"/><line x1="628.5" y1="66.541" x2="628.5" y2="113.601"/><line x1="629.5" y1="67.473" x2="629.5" y2="111.053"/><line x1="630.5" y1="69.239" x2="630.5" y2="111.382"/><line x1="631.5" y1="67.591" x2="631.5" y2="112.05"/><line x1="632.5" y1="67.113" x2="632.5" y2="112.909"/><line x1="633.5" y1="68.651" x2="633.5" y2="108.265"/><line x1="634.5" y1="68.61" x2="634.5" y2="109.718"/><line x1="635.5" y1="67.629" x2="635.5" y2="112.11"/><line x1="636.5" y1="68.475" x2="636.5" y2="112.956"/><line x1="637.5" y1="69.14" x2="637.5" y2="111.077"/><line x1="638.5" y1="70.244" x2="638.5" y2="109.067"/><line x1="639.5" y1="67.928" x2="639.5" y2="111.379"/><line x1="640.5" y1="65.253" x2="640.5" y2="109.221"/><line x1="641.5" y1="68.17" x2="641.5" y2="113.5"/><line x1="642.5" y1="68.019" x2="642.5" y2="111.366"/><line x1="643.5" y1="70.417" x2="643.5" y2="110.896"/><line x1="644.5" y1="71.521" x2="644.5" y2="113.623"/><line x1="645.5" y1="65.028" x2="645.5" y2="107.795"/><line x1="646.5" y1="68.807" x2="646.5" y2="109.677"/><line x1="647.5" y1="71.576" x2="647.5" y2="111.088"/><line x1="648.5" y1="68.917" x2="648.5" y2="108.416"/><line x1="649.5" y1="70.821" x2="649.5" y2="109.803"/><line x1="650.5" y1="73.803" x2="650.5" y2="113.648"/><line x1="651.5" y1="65.63" x2="651.5" y2="110.152"/><line x1="652.5" y1="65.583" x2="652.5" y2="108.572"/><line x1="653.5" y1="73.685" x2="653.5" y2="111.926"/><line x1="654.5" y1="69.901" x2="654.5" y2="110.039"/><line x1="655.5" y1="69.046" x2="655.5" y2="110.542"/><line x1="656.5" y1="73.891" x2="656.5" y2="113.069"/><line x1="657.5" y1="71.658" x2="657.5" y2="113.093"/><line x1="658.5" y1="65.951" x2="658.5" y2="107.477"/><line x1="659.5" y1="65.88" x2="659.5" y2="108.073"/><line x1="660.5" y1="70.826" x2="660.5" y2="113.538"/><line x1="661.5" y1="74.792" x2="661.5" y2="114.112"/><line x1="662.5" y1="69.277" x2="662.5" y2="110.47"/><line x1="663.5" y1="68.181" x2="663.5" y2="107.935"/><line x1="664.5" y1="70.705" x2="664.5" y2="108.251"/><line x1="665.5" y1="71.29" x2="665.5" y2="108.009"/><line x1="666.5" y1="71.678" x2="666.5" y2="107.4"/><line x1="667.5" y1="72.265" x2="667.5" y2="107.246"/><line x1="668.5" y1="72.639" x2="668.5" y2="107.292"/><line x1="669.5" y1="73.644" x2="669.5" y2="107.408"/><line x1="670.5" y1="74.603" x2="670.5" y2="107.548"/><line x1="671.5" y1="73.152" x2="671.5" y2="107.46"/><line x1="672.5" y1="72.743" x2="672.5" y2="106.609"/><line x1="673.5" y1="72.537" x2="673.5" y2="105.785"/><line x1="674.5" y1="72.798" x2="674.5" y2="106.631"/><line x1="675.5" y1="74.674" x2="675.5" y2="107.792"/><line x1="676.5" y1="72.79" x2="676.5" y2="107.422"/><line x1="677.5" y1="71.853" x2="677.5" y2="106.131"/><line x1="678.5" y1="73.183" x2="678.5" y2="108.6"/><line x1="679.5" y1="71.927" x2="679.5" y2="108.504"/><line x1="680.5" y1="70.848" x2="680.5" y2="106.864"/><line x1="681.5" y1="71.557" x2="681.5" y2="109.465"/><line x1="682.5" y1="70.214" x2="682.5" y2="107.839"/><line x1="683.5" y1="71.125" x2="683.5" y2="109.723"/><line x1="684.5" y1="70.392" x2="684.5" y2="106.499"/><line x1="685.5" y1="71.502" x2="685.5" y2="109.487"/><line x1="686.5" y1="70.892" x2="686.5" y2="107.979"/><line x1="687.5" y1="72.565" x2="687.5" y2="108.479"/><line x1="688.5" y1="72.43" x2="688.5" y2="106.826"/><line x1="689.5" y1="73.125" x2="689.5" y2="106.765"/><line x1="690.5" y1="72.68" x2="690.5" y2="108.149"/><line x1="691.5" y1="70.983" x2="691.5" y2="107.913"/><line x1="692.5" y1="70.856" x2="692.5" y2="109.218"/><line x1="693.5" y1="71.906" x2="693.5" y2="109.558"/><line x1="694.5" y1="71.186" x2="694.5" y2="108.71"/><line x1="695.5" y1="72.079" x2="695.5" y2="107.04"/><line x1="696.5" y1="72.716" x2="696.5" y2="107.004"/><line x1="697.5" y1="71.233" x2="697.5" y2="108.353"/><line x1="698.5" y1="70.642" x2="698.5" y2="108.968"/><line x1="699.5" y1="71.271" x2="699.5" y2="107.174"/><line x1="700.5" y1="73.257" x2="700.5" y2="108.578"/><line x1="701.5" y1="73.446" x2="701.5" y2="106.911"/><line x1="702.5" y1="71.211" x2="702.5" y2="107.806"/><line x1="703.5" y1="71.227" x2="703.5" y2="108.342"/><line x1="704.5" y1="71.661" x2="704.5" y2="109.221"/><line x1="705.5" y1="72.71" x2="705.5" y2="107.078"/><line x1="706.5" y1="73.93" x2="706.5" y2="106.433"/><line x1="707.5" y1="71.018" x2="707.5" y2="108.883"/><line x1="708.5" y1="73.043" x2="708.5" y2="108.105"/><line x1="709.5" y1="71.669" x2="709.5" y2="107.652"/><line x1="710.5" y1="72.26" x2="710.5" y2="105.936"/><line x1="711.5" y1="70.966" x2="711.5" y2="108.781"/><line x1="712.5" y1="72.746" x2="712.5" y2="107.15"/><line x1="713.5" y1="72.675" x2="713.5" y2="106.875"/><line x1="714.5" y1="72.798" x2="714.5" y2="107.422"/><line x1="715.5" y1="72.076" x2="715.5" y2="108.474"/><line x1="716.5" y1="71.532" x2="716.5" y2="107.941"/><line x1="717.5" y1="73.38" x2="717.5" y2="106.433"/><line x1="718.5" y1="73.32" x2="718.5" y2="107.608"/><line x1="719.5" y1="71.908" x2="719.5" y2="108.141"/></g><g stroke="#f97316" stroke-width="1" stroke-linecap="butt" opacity="0.7"><line x1="0.5" y1="79.557" x2="0.5" y2="100.443"/><line x1="1.5" y1="79.796" x2="1.5" y2="100.204"/><line x1="2.5" y1="80.156" x2="2.5" y2="99.844"/><line x1="3.5" y1="80.004" x2="3.5" y2="99.996"/><line x1="4.5" y1="80.079" x2="4.5" y2="99.921"/><line x1="5.5" y1="79.321" x2="5.5" y2="100.679"/><line x1="6.5" y1="79.331" x2="6.5" y2="100.669"/><line x1="7.5" y1="79.998" x2="7.5" y2="100.002"/><line x1="8.5" y1="80.107" x2="8.5" y2="99.893"/><line x1="9.5" y1="79.116" x2="9.5" y2="100.884"/><line x1="10.5" y1="79.045" x2="10.5" y2="100.955"/><line x1="11.5" y1="79.712" x2="11.5" y2="100.288"/><line x1="12.5" y1="79.9" x2="12.5" y2="100.1"/><line x1="13.5" y1="79.517" x2="13.5" y2="100.483"/><line x1="14.5" y1="79.515" x2="14.5" y2="100.485"/><line x1="15.5" y1="79.489" x2="15.5" y2="100.511"/><line x1="16.5" y1="79.544" x2="16.5" y2="100.456"/><line x1="17.5" y1="80.431" x2="17.5" y2="99.569"/><line x1="18.5" y1="79.049" x2="18.5" y2="100.951"/><line x1="19.5" y1="78.054" x2="19.5" y2="101.946"/><line x1="20.5" y1="79.967" x2="20.5" y2="100.033"/><line x1="21.5" y1="79.648" x2="21.5" y2="100.352"/><line x1="22.5" y1="78.318" x2="22.5" y2="101.682"/><line x1="23.5" y1="79.863" x2="23.5" y2="100.137"/><line x1="24.5" y1="79.571" x2="24.5" y2="100.429"/><line x1="25.5" y1="78.847" x2="25.5" y2="101.153"/><line x1="26.5" y1="80.005" x2="26.5" y2="99.995"/><line x1="27.5" y1="79.348" x2="27.5" y2="100.652"/><line x1="28.5" y1="78.991" x2="28.5" y2="101.009"/><line x1="29.5" y1="79.908" x2="29.5" y2="100.092"/><line x1="30.5" y1="78.836" x2="30.5" y2="101.164"/><line x1="31.5" y1="79.583" x2="31.5" y2="100.417"/><line x1="32.5" y1="79.162" x2="32.5" y2="100.838"/><line x1="33.5" y1="78.969" x2="33.5" y2="101.031"/><line x1="34.5" y1="79.161" x2="34.5" y2="100.839"/><line x1="35.5" y1="79.279" x2="35.5" y2="100.721"/><line x1="36.5" y1="79.204" x2="36.5" y2="100.796"/><line x1="37.5" y1="79.198" x2="37.5" y2="100.802"/><line x1="38.5" y1="78.934" x2="38.5" y2="101.066"/><line x1="39.5" y1="79.61" x2="39.5" y2="100.39"/><line x1="40.5" y1="78.518" x2="40.5" y2="101.482"/><line x1="41.5" y1="80.467" x2="41.5" y2="99.533"/><line x1="42.5" y1="78.183" x2="42.5" y2="101.817"/><line x1="43.5" y1="80.975" x2="43.5" y2="99.025"/><line x1="44.5" y1="78.809" x2="44.5" y2="101.191"/><line x1="45.5" y1="79.19" x2="45.5" y2="100.81"/><line x1="46.5" y1="79.953" x2="46.5" y2="100.047"/><line x1="47.5" y1="78.215" x2="47.5" y2="101.785"/><line x1="48.5" y1="78.669" x2="48.5" y2="101.331"/><line x1="49.5" y1="78.874" x2="49.5" y2="101.126"/><line x1="50.5" y1="78.704" x2="50.5" y2="101.296"/><line x1="51.5" y1="78.262" x2="51.5" y2="101.738"/><line x1="52.5" y1="80.868" x2="52.5" y2="99.132"/><line x1="53.5" y1="79.426" x2="53.5" y2="100.574"/><line x1="54.5" y1="78.195" x2="54.5" y2="101.805"/><line x1="55.5" y1="78.291" x2="55.5" y2="101.709"/><line x1="56.5" y1="78.083" x2="56.5" y2="101.917"/><line x1="57.5" y1="79.438" x2="57.5" y2="100.562"/><line x1="58.5" y1="79.349" x2="58.5" y2="100.651"/><line x1="59.5" y1="78.532" x2="59.5" y2="101.468"/><line x1="60.5" y1="78.574" x2="60.5" y2="101.426"/><line x1="61.5" y1="77.581" x2="61.5" y2="102.419"/><line x1="62.5" y1="78.216" x2="62.5" y2="101.784"/><line x1="63.5" y1="80.547" x2="63.5" y2="99.453"/><line x1="64.5" y1="79.121" x2="64.5" y2="100.879"/><line x1="65.5" y1="77.413" x2="65.5" y2="102.587"/><line x1="66.5" y1="77.722" x2="66.5" y2="102.278"/><line x1="67.5" y1="79.05" x2="67.5" y2="100.95"/><line x1="68.5" y1="78.872" x2="68.5" y2="101.128"/><line x1="69.5" y1="77.657" x2="69.5" y2="102.343"/><line x1="70.5" y1="77.347" x2="70.5" y2="102.653"/><line x1="71.5" y1="79.067" x2="71.5" y2="100.933"/><line x1="72.5" y1="78.985" x2="72.5" y2="101.015"/><line x1="73.5" y1="77.004" x2="73.5" y2="102.996"/><line x1="74.5" y1="78.075" x2="74.5" y2="101.925"/><line x1="75.5" y1="79.386" x2="75.5" y2="100.614"/><line x1="76.5" y1="77.523" x2="76.5" y2="102.477"/><line x1="77.5" y1="77.403" x2="77.5" y2="102.597"/><line x1="78.5" y1="79.899" x2="78.5" y2="100.101"/><line x1="79.5" y1="76.83" x2="79.5" y2="103.17"/><line x1="80.5" y1="76.324" x2="80.5" y2="103.676"/><line x1="81.5" y1="80.096" x2="81.5" y2="99.904"/><line x1="82.5" y1="76.891" x2="82.5" y2="103.109"/><line x1="83.5" y1="76.862" x2="83.5" y2="103.138"/><line x1="84.5" y1="79.883" x2="84.5" y2="100.117"/><line x1="85.5" y1="76.274" x2="85.5" y2="103.726"/><line x1="86.5" y1="77.831" x2="86.5" y2="102.169"/><line x1="87.5" y1="78.6" x2="87.5" y2="101.4"/><line x1="88.5" y1="75.482" x2="88.5" y2="104.518"/><line x1="89.5" y1="80.327" x2="89.5" y2="99.673"/><line x1="90.5" y1="75.681" x2="90.5" y2="104.319"/><line x1="91.5" y1="76.774" x2="91.5" y2="103.226"/><line x1="92.5" y1="78.942" x2="92.5" y2="101.058"/><line x1="93.5" y1="75.943" x2="93.5" y2="104.057"/><line x1="94.5" y1="79.296" x2="94.5" y2="100.704"/><line x1="95.5" y1="74.721" x2="95.5" y2="105.279"/><line x1="96.5" y1="80.277" x2="96.5" y2="99.723"/><line x1="97.5" y1="74.609" x2="97.5" y2="105.391"/><line x1="98.5" y1="78.293" x2="98.5" y2="101.707"/><line x1="99.5" y1="76.52" x2="99.5" y2="103.48"/><line x1="100.5" y1="76.159" x2="100.5" y2="103.841"/><line x1="101.5" y1="77.223" x2="101.5" y2="102.777"/><line x1="102.5" y1="75.792" x2="102.5" y2="104.208"/><line x1="103.5" y1="77.238" x2="103.5" y2="102.762"/><line x1="104.5" y1="75.317" x2="104.5" y2="104.683"/><line x1="105.5" y1="77.157" x2="105.5" y2="102.843"/><line x1="106.5" y1="76.731" x2="106.5" y2="103.269"/><line x1="107.5" y1="75.442" x2="107.5" y2="104.558"/><line x1="108.5" y1="77.599" x2="108.5" y2="102.401"/><line x1="109.5" y1="74.064" x2="109.5" y2="105.936"/><line x1="110.5" y1="78.898" x2="110.5" y2="101.102"/><line x1="111.5" y1="73.038" x2="111.5" y2="106.962"/><line x1="112.5" y1="79.256" x2="112.5" y2="100.744"/><line x1="113.5" y1="73.006" x2="113.5" y2="106.994"/><line x1="114.5" y1="78.959" x2="114.5" y2="101.041"/><line x1="115.5" y1="74.721" x2="115.5" y2="105.279"/><line x1="116.5" y1="74.896" x2="116.5" y2="105.104"/><line x1="117.5" y1="78.122" x2="117.5" y2="101.878"/><line x1="118.5" y1="72.483" x2="118.5" y2="107.517"/><line x1="119.5" y1="78.739" x2="119.5" y2="101.261"/><line x1="120.5" y1="73.55" x2="120.5" y2="106.45"/><line x1="121.5" y1="75.149" x2="121.5" y2="104.851"/><line x1="122.5" y1="77.992" x2="122.5" y2="102.008"/><line x1="123.5" y1="71.276" x2="123.5" y2="108.724"/><line x1="124.5" y1="78.442" x2="124.5" y2="101.558"/><line x1="125.5" y1="77.514" x2="125.5" y2="102.486"/><line x1="126.5" y1="71.182" x2="126.5" y2="108.818"/><line x1="127.5" y1="78.73" x2="127.5" y2="101.27"/><line x1="128.5" y1="77.204" x2="128.5" y2="102.796"/><line x1="129.5" y1="71.078" x2="129.5" y2="108.922"/><line x1="130.5" y1="77.648" x2="130.5" y2="102.352"/><line x1="131.5" y1="76.834" x2="131.5" y2="103.166"/><line x1="132.5" y1="70.657" x2="132.5" y2="109.343"/><line x1="133.5" y1="75.98" x2="133.5" y2="104.02"/><line x1="134.5" y1="80.899" x2="134.5" y2="99.101"/><line x1="135.5" y1="72.263" x2="135.5" y2="107.737"/><line x1="136.5" y1="71.262" x2="136.5" y2="108.738"/><line x1="137.5" y1="79.022" x2="137.5" y2="100.978"/><line x1="138.5" y1="77.215" x2="138.5" y2="102.785"/><line x1="139.5" y1="70.946" x2="139.5" y2="109.054"/><line x1="140.5" y1="72.016" x2="140.5" y2="107.984"/><line x1="141.5" y1="79.426" x2="141.5" y2="100.574"/><line x1="142.5" y1="77.543" x2="142.5" y2="102.457"/><line x1="143.5" y1="70.789" x2="143.5" y2="109.211"/><line x1="144.5" y1="70.572" x2="144.5" y2="109.428"/><line x1="145.5" y1="76.456" x2="145.5" y2="103.544"/><line x1="146.5" y1="80.746" x2="146.5" y2="99.254"/><line x1="147.5" y1="74.579" x2="147.5" y2="105.421"/><line x1="148.5" y1="70.218" x2="148.5" y2="109.782"/><line x1="149.5" y1="69.955" x2="149.5" y2="110.045"/><line x1="150.5" y1="74.883" x2="150.5" y2="105.117"/><line x1="151.5" y1="80.858" x2="151.5" y2="99.142"/><line x1="152.5" y1="78.442" x2="152.5" y2="101.558"/><line x1="153.5" y1="71.688" x2="153.5" y2="108.312"/><line x1="154.5" y1="68.07" x2="154.5" y2="111.93"/><line x1="155.5" y1="69.272" x2="155.5" y2="110.728"/><line x1="156.5" y1="72.97" x2="156.5" y2="107.03"/><line x1="157.5" y1="77.625" x2="157.5" y2="102.375"/><line x1="158.5" y1="81.213" x2="158.5" y2="98.787"/><line x1="159.5" y1="78.943" x2="159.5" y2="101.057"/><line x1="160.5" y1="73.94" x2="160.5" y2="106.06"/><line x1="161.5" y1="71.166" x2="161.5" y2="108.834"/><line x1="162.5" y1="68.165" x2="162.5" y2="111.835"/><line x1="163.5" y1="66.518" x2="163.5" y2="113.482"/><line x1="164.5" y1="68.481" x2="164.5" y2="111.519"/><line x1="165.5" y1="70.365" x2="165.5" y2="109.635"/><line x1="166.5" y1="71.365" x2="166.5" y2="108.635"/><line x1="167.5" y1="75.298" x2="167.5" y2="104.702"/><line x1="168.5" y1="77.416" x2="168.5" y2="102.584"/><line x1="169.5" y1="78.745" x2="169.5" y2="101.255"/><line x1="170.5" y1="80.666" x2="170.5" y2="99.334"/><line x1="171.5" y1="81.164" x2="171.5" y2="98.836"/><line x1="172.5" y1="80.656" x2="172.5" y2="99.344"/><line x1="173.5" y1="80.959" x2="173.5" y2="99.041"/><line x1="174.5" y1="80.601" x2="174.5" y2="99.399"/><line x1="175.5" y1="79.989" x2="175.5" y2="100.011"/><line x1="176.5" y1="80.473" x2="176.5" y2="99.527"/><line x1="177.5" y1="79.912" x2="177.5" y2="100.088"/><line x1="178.5" y1="81.001" x2="178.5" y2="98.999"/><line x1="179.5" y1="80.46" x2="179.5" y2="99.54"/><line x1="180.5" y1="80.907" x2="180.5" y2="99.093"/><line x1="181.5" y1="80.009" x2="181.5" y2="99.991"/><line x1="182.5" y1="78.787" x2="182.5" y2="101.213"/><line x1="183.5" y1="76.798" x2="183.5" y2="103.202"/><line x1="184.5" y1="73.491" x2="184.5" y2="106.509"/><line x1="185.5" y1="71.948" x2="185.5" y2="108.052"/><line x1="186.5" y1="67.315" x2="186.5" y2="112.685"/><line x1="187.5" y1="67.312" x2="187.5" y2="112.688"/><line x1="188.5" y1="64.427" x2="188.5" y2="115.573"/><line x1="189.5" y1="65.695" x2="189.5" y2="114.305"/><line x1="190.5" y1="67.77" x2="190.5" y2="112.23"/><line x1="191.5" y1="70.843" x2="191.5" y2="109.157"/><line x1="192.5" y1="77.392" x2="192.5" y2="102.608"/><line x1="193.5" y1="79.695" x2="193.5" y2="100.305"/><line x1="194.5" y1="75.494" x2="194.5" y2="104.506"/><line x1="195.5" y1="68.749" x2="195.5" y2="111.251"/><line x1="196.5" y1="66.711" x2="196.5" y2="113.289"/><line x1="197.5" y1="64.175" x2="197.5" y2="115.825"/><line x1="198.5" y1="67.272" x2="198.5" y2="112.728"/><line x1="199.5" y1="74.532" x2="199.5" y2="105.468"/><line x1="200.5" y1="79.475" x2="200.5" y2="100.525"/><line x1="201.5" y1="72.901" x2="201.5" y2="107.099"/><line x1="202.5" y1="64.965" x2="202.5" y2="115.035"/><line x1="203.5" y1="63.145" x2="203.5" y2="116.855"/><line x1="204.5" y1="71.296" x2="204.5" y2="108.704"/><line x1="205.5" y1="77.013" x2="205.5" y2="102.987"/><line x1="206.5" y1="72.565" x2="206.5" y2="107.435"/><line x1="207.5" y1="66.448" x2="207.5" y2="113.552"/><line x1="208.5" y1="63.553" x2="208.5" y2="116.447"/><line x1="209.5" y1="72.453" x2="209.5" y2="107.547"/><line x1="210.5" y1="77.726" x2="210.5" y2="102.274"/><line x1="211.5" y1="66.469" x2="211.5" y2="113.531"/><line x1="212.5" y1="62.741" x2="212.5" y2="117.259"/><line x1="213.5" y1="73.169" x2="213.5" y2="106.831"/><line x1="214.5" y1="75.319" x2="214.5" y2="104.681"/><line x1="215.5" y1="65.306" x2="215.5" y2="114.694"/><line x1="216.5" y1="64.983" x2="216.5" y2="115.017"/><line x1="217.5" y1="76.683" x2="217.5" y2="103.317"/><line x1="218.5" y1="70.923" x2="218.5" y2="109.077"/><line x1="219.5" y1="62.688" x2="219.5" y2="117.312"/><line x1="220.5" y1="72.094" x2="220.5" y2="107.906"/><line x1="221.5" y1="75.066" x2="221.5" y2="104.934"/><line x1="222.5" y1="63.16" x2="222.5" y2="116.84"/><line x1="223.5" y1="68.899" x2="223.5" y2="111.101"/><line x1="224.5" y1="74.297" x2="224.5" y2="105.703"/><line x1="225.5" y1="63.391" x2="225.5" y2="116.609"/><line x1="226.5" y1="69.928" x2="226.5" y2="110.072"/><line x1="227.5" y1="72.823" x2="227.5" y2="107.177"/><line x1="228.5" y1="62.485" x2="228.5" y2="117.515"/><line x1="229.5" y1="73.883" x2="229.5" y2="106.117"/><line x1="230.5" y1="68.563" x2="230.5" y2="111.437"/><line x1="231.5" y1="63.973" x2="231.5" y2="116.027"/><line x1="232.5" y1="75.265" x2="232.5" y2="104.735"/><line x1="233.5" y1="63.825" x2="233.5" y2="116.175"/><line x1="234.5" y1="70.352" x2="234.5" y2="109.648"/><line x1="235.5" y1="68.346" x2="235.5" y2="111.654"/><line x1="236.5" y1="64.445" x2="236.5" y2="115.555"/><line x1="237.5" y1="75.65" x2="237.5" y2="104.35"/><line x1="238.5" y1="62.352" x2="238.5" y2="117.648"/><line x1="239.5" y1="73.671" x2="239.5" y2="106.329"/><line x1="240.5" y1="64.144" x2="240.5" y2="115.856"/><line x1="241.5" y1="69.742" x2="241.5" y2="110.258"/><line x1="242.5" y1="66.212" x2="242.5" y2="113.788"/><line x1="243.5" y1="67.876" x2="243.5" y2="112.124"/><line x1="244.5" y1="67.633" x2="244.5" y2="112.367"/><line x1="245.5" y1="66.071" x2="245.5" y2="113.929"/><line x1="246.5" y1="70.326" x2="246.5" y2="109.674"/><line x1="247.5" y1="64.601" x2="247.5" y2="115.399"/><line x1="248.5" y1="70.049" x2="248.5" y2="109.951"/><line x1="249.5" y1="64.561" x2="249.5" y2="115.439"/><line x1="250.5" y1="70.134" x2="250.5" y2="109.866"/><line x1="251.5" y1="65.18" x2="251.5" y2="114.82"/><line x1="252.5" y1="67.644" x2="252.5" y2="112.356"/><line x1="253.5" y1="67.101" x2="253.5" y2="112.899"/><line x1="254.5" y1="65.622" x2="254.5" y2="114.378"/><line x1="255.5" y1="69.263" x2="255.5" y2="110.737"/><line x1="256.5" y1="63.148" x2="256.5" y2="116.852"/><line x1="257.5" y1="72.462" x2="257.5" y2="107.538"/><line x1="258.5" y1="62.054" x2="258.5" y2="117.946"/><line x1="259.5" y1="71.051" x2="259.5" y2="108.949"/><line x1="260.5" y1="64.811" x2="260.5" y2="115.189"/><line x1="261.5" y1="64.872" x2="261.5" y2="115.128"/><line x1="262.5" y1="70.661" x2="262.5" y2="109.339"/><line x1="263.5" y1="61.788" x2="263.5" y2="118.212"/><line x1="264.5" y1="70.587" x2="264.5" y2="109.413"/><line x1="265.5" y1="65.557" x2="265.5" y2="114.443"/><line x1="266.5" y1="62.903" x2="266.5" y2="117.097"/><line x1="267.5" y1="70.829" x2="267.5" y2="109.171"/><line x1="268.5" y1="63.796" x2="268.5" y2="116.204"/><line x1="269.5" y1="65.689" x2="269.5" y2="114.311"/><line x1="270.5" y1="69.513" x2="270.5" y2="110.487"/><line x1="271.5" y1="62.862" x2="271.5" y2="117.138"/><line x1="272.5" y1="66.684" x2="272.5" y2="113.316"/><line x1="273.5" y1="68.833" x2="273.5" y2="111.167"/><line x1="274.5" y1="62.889" x2="274.5" y2="117.111"/><line x1="275.5" y1="64.05" x2="275.5" y2="115.95"/><line x1="276.5" y1="69.482" x2="276.5" y2="110.518"/><line x1="277.5" y1="64.831" x2="277.5" y2="115.169"/><line x1="278.5" y1="63.704" x2="278.5" y2="116.296"/><line x1="279.5" y1="68.443" x2="279.5" y2="111.557"/><line x1="280.5" y1="66.722" x2="280.5" y2="113.278"/><line x1="281.5" y1="61.328" x2="281.5" y2="118.672"/><line x1="282.5" y1="63.555" x2="282.5" y2="116.445"/><line x1="283.5" y1="68.632" x2="283.5" y2="111.368"/><line x1="284.5" y1="65.929" x2="284.5" y2="114.071"/><line x1="285.5" y1="62.488" x2="285.5" y2="117.512"/><line x1="286.5" y1="63.741" x2="286.5" y2="116.259"/><line x1="287.5" y1="65.86" x2="287.5" y2="114.14"/><line x1="288.5" y1="66.736" x2="288.5" y2="113.264"/><line x1="289.5" y1="62.916" x2="289.5" y2="117.084"/><line x1="290.5" y1="62.233" x2="290.5" y2="117.767"/><line x1="291.5" y1="64.479" x2="291.5" y2="115.521"/><line x1="292.5" y1="67.546" x2="292.5" y2="112.454"/><line x1="293.5" y1="65.976" x2="293.5" y2="114.024"/><line x1="294.5" y1="63.421" x2="294.5" y2="116.579"/><line x1="295.5" y1="62.703" x2="295.5" y2="117.297"/><line x1="296.5" y1="64.442" x2="296.5" y2="115.558"/><line x1="297.5" y1="65.131" x2="297.5" y2="114.869"/><line x1="298.5" y1="65.022" x2="298.5" y2="114.978"/><line x1="299.5" y1="65.27" x2="299.5" y2="114.73"/><line x1="300.5" y1="64.093" x2="300.5" y2="115.907"/><line x1="301.5" y1="63.377" x2="301.5" y2="116.623"/><line x1="302.5" y1="62.801" x2="302.5" y2="117.199"/><line x1="303.5" y1="63.594" x2="303.5" y2="116.406"/><line x1="304.5" y1="63.814" x2="304.5" y2="116.186"/><line x1="305.5" y1="65.588" x2="305.5" y2="114.412"/><line x1="306.5" y1="65.997" x2="306.5" y2="114.003"/><line x1="307.5" y1="64.171" x2="307.5" y2="115.829"/><line x1="308.5" y1="65.212" x2="308.5" y2="114.788"/><line x1="309.5" y1="65.253" x2="309.5" y2="114.747"/><line x1="310.5" y1="63.624" x2="310.5" y2="116.376"/><line x1="311.5" y1="64.253" x2="311.5" y2="115.747"/><line x1="312.5" y1="63.936" x2="312.5" y2="116.064"/><line x1="313.5" y1="63.677" x2="313.5" y2="116.323"/><line x1="314.5" y1="64.141" x2="314.5" y2="115.859"/><line x1="315.5" y1="63.919" x2="315.5" y2="116.081"/><line x1="316.5" y1="63.793" x2="316.5" y2="116.207"/><line x1="317.5" y1="63.808" x2="317.5" y2="116.192"/><line x1="318.5" y1="64.257" x2="318.5" y2="115.743"/><line x1="319.5" y1="64.119" x2="319.5" y2="115.881"/><line x1="320.5" y1="64.284" x2="320.5" y2="115.716"/><line x1="321.5" y1="63.859" x2="321.5" y2="116.141"/><line x1="322.5" y1="64.243" x2="322.5" y2="115.757"/><line x1="323.5" y1="64.442" x2="323.5" y2="115.558"/><line x1="324.5" y1="64.354" x2="324.5" y2="115.646"/><line x1="325.5" y1="64.1" x2="325.5" y2="115.9"/><line x1="326.5" y1="64.421" x2="326.5" y2="115.579"/><line x1="327.5" y1="64.141" x2="327.5" y2="115.859"/><line x1="328.5" y1="64.2" x2="328.5" y2="115.8"/><line x1="329.5" y1="64.721" x2="329.5" y2="115.279"/><line x1="330.5" y1="62.802" x2="330.5" y2="117.198"/><line x1="331.5" y1="64.777" x2="331.5" y2="115.223"/><line x1="332.5" y1="61.93" x2="332.5" y2="118.07"/><line x1="333.5" y1="63.72" x2="333.5" y2="116.28"/><line x1="334.5" y1="62.984" x2="334.5" y2="117.016"/><line x1="335.5" y1="63.691" x2="335.5" y2="116.309"/><line x1="336.5" y1="64.438" x2="336.5" y2="115.562"/><line x1="337.5" y1="65.022" x2="337.5" y2="114.978"/><line x1="338.5" y1="64.555" x2="338.5" y2="115.445"/><line x1="339.5" y1="63.506" x2="339.5" y2="116.494"/><line x1="340.5" y1="64.292" x2="340.5" y2="115.708"/><line x1="341.5" y1="61.816" x2="341.5" y2="118.184"/><line x1="342.5" y1="62.554" x2="342.5" y2="117.446"/><line x1="343.5" y1="64.748" x2="343.5" y2="115.252"/><line x1="344.5" y1="64.975" x2="344.5" y2="115.025"/><line x1="345.5" y1="64.833" x2="345.5" y2="115.167"/><line x1="346.5" y1="62.829" x2="346.5" y2="117.171"/><line x1="347.5" y1="61.44" x2="347.5" y2="118.56"/><line x1="348.5" y1="64.22" x2="348.5" y2="115.78"/><line x1="349.5" y1="64.778" x2="349.5" y2="115.222"/><line x1="350.5" y1="64.639" x2="350.5" y2="115.361"/><line x1="351.5" y1="63.674" x2="351.5" y2="116.326"/><line x1="352.5" y1="61.368" x2="352.5" y2="118.632"/><line x1="353.5" y1="63.957" x2="353.5" y2="116.043"/><line x1="354.5" y1="65.492" x2="354.5" y2="114.508"/><line x1="355.5" y1="63.518" x2="355.5" y2="116.482"/><line x1="356.5" y1="61.313" x2="356.5" y2="118.687"/><line x1="357.5" y1="64.49" x2="357.5" y2="115.51"/><line x1="358.5" y1="65.352" x2="358.5" y2="114.648"/><line x1="359.5" y1="62.544" x2="359.5" y2="117.456"/><line x1="360.5" y1="62.34" x2="360.5" y2="117.66"/><line x1="361.5" y1="65.326" x2="361.5" y2="114.674"/><line x1="362.5" y1="64.419" x2="362.5" y2="115.581"/><line x1="363.5" y1="61.602" x2="363.5" y2="118.398"/><line x1="364.5" y1="64.377" x2="364.5" y2="115.623"/><line x1="365.5" y1="65.809" x2="365.5" y2="114.191"/><line x1="366.5" y1="61.8" x2="366.5" y2="118.2"/><line x1="367.5" y1="62.99" x2="367.5" y2="117.01"/><line x1="368.5" y1="65.575" x2="368.5" y2="114.425"/><line x1="369.5" y1="62.418" x2="369.5" y2="117.582"/><line x1="370.5" y1="60.685" x2="370.5" y2="119.315"/><line x1="371.5" y1="67.455" x2="371.5" y2="112.545"/><line x1="372.5" y1="58.686" x2="372.5" y2="121.314"/><line x1="373.5" y1="67.321" x2="373.5" y2="112.679"/><line x1="374.5" y1="61.474" x2="374.5" y2="118.526"/><line x1="375.5" y1="63.954" x2="375.5" y2="116.046"/><line x1="376.5" y1="62.405" x2="376.5" y2="117.595"/><line x1="377.5" y1="64.284" x2="377.5" y2="115.716"/><line x1="378.5" y1="61.329" x2="378.5" y2="118.671"/><line x1="379.5" y1="66.855" x2="379.5" y2="113.145"/><line x1="380.5" y1="58.71" x2="380.5" y2="121.29"/><line x1="381.5" y1="69.423" x2="381.5" y2="110.577"/><line x1="382.5" y1="58.665" x2="382.5" y2="121.335"/><line x1="383.5" y1="68.013" x2="383.5" y2="111.987"/><line x1="384.5" y1="60.414" x2="384.5" y2="119.586"/><line x1="385.5" y1="64.629" x2="385.5" y2="115.371"/><line x1="386.5" y1="63.187" x2="386.5" y2="116.813"/><line x1="387.5" y1="61.994" x2="387.5" y2="118.006"/><line x1="388.5" y1="67.136" x2="388.5" y2="112.864"/><line x1="389.5" y1="59.083" x2="389.5" y2="120.917"/><line x1="390.5" y1="68.389" x2="390.5" y2="111.611"/><line x1="391.5" y1="60.831" x2="391.5" y2="119.169"/><line x1="392.5" y1="63.469" x2="392.5" y2="116.531"/><line x1="393.5" y1="65.482" x2="393.5" y2="114.518"/><line x1="394.5" y1="62.594" x2="394.5" y2="117.406"/><line x1="395.5" y1="62.496" x2="395.5" y2="117.504"/><line x1="396.5" y1="65.17" x2="396.5" y2="114.83"/><line x1="397.5" y1="63.191" x2="397.5" y2="116.809"/><line x1="398.5" y1="64.615" x2="398.5" y2="115.385"/><line x1="399.5" y1="63.949" x2="399.5" y2="116.051"/><line x1="400.5" y1="63.313" x2="400.5" y2="116.687"/><line x1="401.5" y1="66.033" x2="401.5" y2="113.967"/><line x1="402.5" y1="62.22" x2="402.5" y2="117.78"/><line x1="403.5" y1="66.308" x2="403.5" y2="113.692"/><line x1="404.5" y1="62.929" x2="404.5" y2="117.071"/><line x1="405.5" y1="64.203" x2="405.5" y2="115.797"/><line x1="406.5" y1="65.425" x2="406.5" y2="114.575"/><line x1="407.5" y1="62.43" x2="407.5" y2="117.57"/><line x1="408.5" y1="66.589" x2="408.5" y2="113.411"/><line x1="409.5" y1="63.412" x2="409.5" y2="116.588"/><line x1="410.5" y1="62.9" x2="410.5" y2="117.1"/><line x1="411.5" y1="66.494" x2="411.5" y2="113.506"/><line x1="412.5" y1="63.127" x2="412.5" y2="116.873"/><line x1="413.5" y1="64.809" x2="413.5" y2="115.191"/><line x1="414.5" y1="65.738" x2="414.5" y2="114.262"/><line x1="415.5" y1="63.208" x2="415.5" y2="116.792"/><line x1="416.5" y1="65.639" x2="416.5" y2="114.361"/><line x1="417.5" y1="65.126" x2="417.5" y2="114.874"/><line x1="418.5" y1="63.276" x2="418.5" y2="116.724"/><line x1="419.5" y1="64.037" x2="419.5" y2="115.963"/><line x1="420.5" y1="66.385" x2="420.5" y2="113.615"/><line x1="421.5" y1="64.169" x2="421.5" y2="115.831"/><line x1="422.5" y1="64.397" x2="422.5" y2="115.603"/><line x1="423.5" y1="66.373" x2="423.5" y2="113.627"/><line x1="424.5" y1="64.766" x2="424.5" y2="115.234"/><line x1="425.5" y1="63.263" x2="425.5" y2="116.737"/><line x1="426.5" y1="64.689" x2="426.5" y2="115.311"/><line x1="427.5" y1="66.515" x2="427.5" y2="113.485"/><line x1="428.5" y1="65.128" x2="428.5" y2="114.872"/><line x1="429.5" y1="63.84" x2="429.5" y2="116.16"/><line x1="430.5" y1="65.067" x2="430.5" y2="114.933"/><line x1="431.5" y1="65.5" x2="431.5" y2="114.5"/><line x1="432.5" y1="66.237" x2="432.5" y2="113.763"/><line x1="433.5" y1="64.38" x2="433.5" y2="115.62"/><line x1="434.5" y1="64.517" x2="434.5" y2="115.483"/><line x1="435.5" y1="65.405" x2="435.5" y2="114.595"/><line x1="436.5" y1="66.601" x2="436.5" y2="113.399"/><line x1="437.5" y1="65.957" x2="437.5" y2="114.043"/><line x1="438.5" y1="64.547" x2="438.5" y2="115.453"/><line x1="439.5" y1="64.5" x2="439.5" y2="115.5"/><line x1="440.5" y1="65.92" x2="440.5" y2="114.08"/><line x1="441.5" y1="66.029" x2="441.5" y2="113.971"/><line x1="442.5" y1="65.693" x2="442.5" y2="114.307"/><line x1="443.5" y1="66.068" x2="443.5" y2="113.932"/><line x1="444.5" y1="65.544" x2="444.5" y2="114.456"/><line x1="445.5" y1="65.6" x2="445.5" y2="114.4"/><line x1="446.5" y1="65.205" x2="446.5" y2="114.795"/><line x1="447.5" y1="65.898" x2="447.5" y2="114.102"/><line x1="448.5" y1="65.794" x2="448.5" y2="114.206"/><line x1="449.5" y1="66.204" x2="449.5" y2="113.796"/><line x1="450.5" y1="67.085" x2="450.5" y2="112.915"/><line x1="451.5" y1="65.63" x2="451.5" y2="114.37"/><line x1="452.5" y1="66.203" x2="452.5" y2="113.797"/><line x1="453.5" y1="66.478" x2="453.5" y2="113.522"/><line x1="454.5" y1="65.948" x2="454.5" y2="114.052"/><line x1="455.5" y1="66.111" x2="455.5" y2="113.889"/><line x1="456.5" y1="66.077" x2="456.5" y2="113.923"/><line x1="457.5" y1="66.122" x2="457.5" y2="113.878"/><line x1="458.5" y1="66.445" x2="458.5" y2="113.555"/><line x1="459.5" y1="66.337" x2="459.5" y2="113.663"/><line x1="460.5" y1="68.201" x2="460.5" y2="111.799"/><line x1="461.5" y1="66.043" x2="461.5" y2="113.957"/><line x1="462.5" y1="64.193" x2="462.5" y2="115.807"/><line x1="463.5" y1="62.545" x2="463.5" y2="117.455"/><line x1="464.5" y1="62.849" x2="464.5" y2="117.151"/><line x1="465.5" y1="64.439" x2="465.5" y2="115.561"/><line x1="466.5" y1="67.382" x2="466.5" y2="112.618"/><line x1="467.5" y1="70.939" x2="467.5" y2="109.061"/><line x1="468.5" y1="70.75" x2="468.5" y2="109.25"/><line x1="469.5" y1="67.532" x2="469.5" y2="112.468"/><line x1="470.5" y1="64.389" x2="470.5" y2="115.611"/><line x1="471.5" y1="62.903" x2="471.5" y2="117.097"/><line x1="472.5" y1="65.68" x2="472.5" y2="114.32"/><line x1="473.5" y1="69.717" x2="473.5" y2="110.283"/><line x1="474.5" y1="70.476" x2="474.5" y2="109.524"/><line x1="475.5" y1="68.344" x2="475.5" y2="111.656"/><line x1="476.5" y1="62.683" x2="476.5" y2="117.317"/><line x1="477.5" y1="65.254" x2="477.5" y2="114.746"/><line x1="478.5" y1="68.005" x2="478.5" y2="111.995"/><line x1="479.5" y1="71.162" x2="479.5" y2="108.838"/><line x1="480.5" y1="66.859" x2="480.5" y2="113.141"/><line x1="481.5" y1="64.377" x2="481.5" y2="115.623"/><line x1="482.5" y1="67.276" x2="482.5" y2="112.724"/><line x1="483.5" y1="71.401" x2="483.5" y2="108.599"/><line x1="484.5" y1="68.998" x2="484.5" y2="111.002"/><line x1="485.5" y1="66.92" x2="485.5" y2="113.08"/><line x1="486.5" y1="67.46" x2="486.5" y2="112.54"/><line x1="487.5" y1="68.588" x2="487.5" y2="111.412"/><line x1="488.5" y1="68.593" x2="488.5" y2="111.407"/><line x1="489.5" y1="68.753" x2="489.5" y2="111.247"/><line x1="490.5" y1="68.132" x2="490.5" y2="111.868"/><line x1="491.5" y1="67.294" x2="491.5" y2="112.706"/><line x1="492.5" y1="68.827" x2="492.5" y2="111.173"/><line x1="493.5" y1="68.672" x2="493.5" y2="111.328"/><line x1="494.5" y1="69.187" x2="494.5" y2="110.813"/><line x1="495.5" y1="68.936" x2="495.5" y2="111.064"/><line x1="496.5" y1="67.259" x2="496.5" y2="112.741"/><line x1="497.5" y1="68.848" x2="497.5" y2="111.152"/><line x1="498.5" y1="69.579" x2="498.5" y2="110.421"/><line x1="499.5" y1="69.063" x2="499.5" y2="110.937"/><line x1="500.5" y1="67.848" x2="500.5" y2="112.152"/><line x1="501.5" y1="69.414" x2="501.5" y2="110.586"/><line x1="502.5" y1="69.771" x2="502.5" y2="110.229"/><line x1="503.5" y1="68.698" x2="503.5" y2="111.302"/><line x1="504.5" y1="68.728" x2="504.5" y2="111.272"/><line x1="505.5" y1="69.894" x2="505.5" y2="110.106"/><line x1="506.5" y1="69.809" x2="506.5" y2="110.191"/><line x1="507.5" y1="68.762" x2="507.5" y2="111.238"/><line x1="508.5" y1="69.509" x2="508.5" y2="110.491"/><line x1="509.5" y1="70.599" x2="509.5" y2="109.401"/><line x1="510.5" y1="68.806" x2="510.5" y2="111.194"/><line x1="511.5" y1="69.206" x2="511.5" y2="110.794"/><line x1="512.5" y1="70.847" x2="512.5" y2="109.153"/><line x1="513.5" y1="69.557" x2="513.5" y2="110.443"/><line x1="514.5" y1="69.46" x2="514.5" y2="110.54"/><line x1="515.5" y1="70.564" x2="515.5" y2="109.436"/><line x1="516.5" y1="69.235" x2="516.5" y2="110.765"/><line x1="517.5" y1="70.662" x2="517.5" y2="109.338"/><line x1="518.5" y1="70.85" x2="518.5" y2="109.15"/><line x1="519.5" y1="69.351" x2="519.5" y2="110.649"/><line x1="520.5" y1="70.718" x2="520.5" y2="109.282"/><line x1="521.5" y1="70.013" x2="521.5" y2="109.987"/><line x1="522.5" y1="70.542" x2="522.5" y2="109.458"/><line x1="523.5" y1="70.933" x2="523.5" y2="109.067"/><line x1="524.5" y1="69.87" x2="524.5" y2="110.13"/><line x1="525.5" y1="71.494" x2="525.5" y2="108.506"/><line x1="526.5" y1="70.297" x2="526.5" y2="109.703"/><line x1="527.5" y1="71.032" x2="527.5" y2="108.968"/><line x1="528.5" y1="70.552" x2="528.5" y2="109.448"/><line x1="529.5" y1="70.931" x2="529.5" y2="109.069"/><line x1="530.5" y1="70.954" x2="530.5" y2="109.046"/><line x1="531.5" y1="71.109" x2="531.5" y2="108.891"/><line x1="532.5" y1="71.505" x2="532.5" y2="108.495"/><line x1="533.5" y1="70.592" x2="533.5" y2="109.408"/><line x1="534.5" y1="72.567" x2="534.5" y2="107.433"/><line x1="535.5" y1="70.303" x2="535.5" y2="109.697"/><line x1="536.5" y1="72.532" x2="536.5" y2="107.468"/><line x1="537.5" y1="70.528" x2="537.5" y2="109.472"/><line x1="538.5" y1="72.603" x2="538.5" y2="107.397"/><line x1="539.5" y1="70.824" x2="539.5" y2="109.176"/><line x1="540.5" y1="72.533" x2="540.5" y2="107.467"/><line x1="541.5" y1="71.065" x2="541.5" y2="108.935"/><line x1="542.5" y1="72.389" x2="542.5" y2="107.611"/><line x1="543.5" y1="71.533" x2="543.5" y2="108.467"/><line x1="544.5" y1="71.968" x2="544.5" y2="108.032"/><line x1="545.5" y1="72.618" x2="545.5" y2="107.382"/><line x1="546.5" y1="71.452" x2="546.5" y2="108.548"/><line x1="547.5" y1="72.979" x2="547.5" y2="107.021"/><line x1="548.5" y1="71.632" x2="548.5" y2="108.368"/><line x1="549.5" y1="72.655" x2="549.5" y2="107.345"/><line x1="550.5" y1="73.572" x2="550.5" y2="106.428"/><line x1="551.5" y1="71.566" x2="551.5" y2="108.434"/><line x1="552.5" y1="71.908" x2="552.5" y2="108.092"/><line x1="553.5" y1="71.877" x2="553.5" y2="108.123"/><line x1="554.5" y1="72.63" x2="554.5" y2="107.37"/><line x1="555.5" y1="73.123" x2="555.5" y2="106.877"/><line x1="556.5" y1="70.979" x2="556.5" y2="109.021"/><line x1="557.5" y1="73.054" x2="557.5" y2="106.946"/><line x1="558.5" y1="74.127" x2="558.5" y2="105.873"/><line x1="559.5" y1="72.167" x2="559.5" y2="107.833"/><line x1="560.5" y1="72.422" x2="560.5" y2="107.578"/><line x1="561.5" y1="72.506" x2="561.5" y2="107.494"/><line x1="562.5" y1="72.898" x2="562.5" y2="107.102"/><line x1="563.5" y1="73.354" x2="563.5" y2="106.646"/><line x1="564.5" y1="73.621" x2="564.5" y2="106.379"/><line x1="565.5" y1="72.149" x2="565.5" y2="107.851"/><line x1="566.5" y1="73.055" x2="566.5" y2="106.945"/><line x1="567.5" y1="74.418" x2="567.5" y2="105.582"/><line x1="568.5" y1="73.61" x2="568.5" y2="106.39"/><line x1="569.5" y1="72.883" x2="569.5" y2="107.117"/><line x1="570.5" y1="73.269" x2="570.5" y2="106.731"/><line x1="571.5" y1="73.631" x2="571.5" y2="106.369"/><line x1="572.5" y1="73.139" x2="572.5" y2="106.861"/><line x1="573.5" y1="73.342" x2="573.5" y2="106.658"/><line x1="574.5" y1="74.606" x2="574.5" y2="105.394"/><line x1="575.5" y1="73.967" x2="575.5" y2="106.033"/><line x1="576.5" y1="74.644" x2="576.5" y2="105.356"/><line x1="577.5" y1="73.89" x2="577.5" y2="106.11"/><line x1="578.5" y1="74.226" x2="578.5" y2="105.774"/><line x1="579.5" y1="74.538" x2="579.5" y2="105.462"/><line x1="580.5" y1="74.769" x2="580.5" y2="105.231"/><line x1="581.5" y1="74.71" x2="581.5" y2="105.29"/><line x1="582.5" y1="74.154" x2="582.5" y2="105.846"/><line x1="583.5" y1="74.263" x2="583.5" y2="105.737"/><line x1="584.5" y1="75.091" x2="584.5" y2="104.909"/><line x1="585.5" y1="75.109" x2="585.5" y2="104.891"/><line x1="586.5" y1="74.806" x2="586.5" y2="105.194"/><line x1="587.5" y1="74.965" x2="587.5" y2="105.035"/><line x1="588.5" y1="74.808" x2="588.5" y2="105.192"/><line x1="589.5" y1="75.052" x2="589.5" y2="104.948"/><line x1="590.5" y1="74.86" x2="590.5" y2="105.14"/><line x1="591.5" y1="75.367" x2="591.5" y2="104.633"/><line x1="592.5" y1="75.348" x2="592.5" y2="104.652"/><line x1="593.5" y1="75.157" x2="593.5" y2="104.843"/><line x1="594.5" y1="75.973" x2="594.5" y2="104.027"/><line x1="595.5" y1="75.218" x2="595.5" y2="104.782"/><line x1="596.5" y1="75.403" x2="596.5" y2="104.597"/><line x1="597.5" y1="75.56" x2="597.5" y2="104.44"/><line x1="598.5" y1="75.643" x2="598.5" y2="104.357"/><line x1="599.5" y1="75.546" x2="599.5" y2="104.454"/><line x1="600.5" y1="75.599" x2="600.5" y2="104.401"/><line x1="601.5" y1="75.71" x2="601.5" y2="104.29"/><line x1="602.5" y1="75.924" x2="602.5" y2="104.076"/><line x1="603.5" y1="75.862" x2="603.5" y2="104.138"/><line x1="604.5" y1="75.983" x2="604.5" y2="104.017"/><line x1="605.5" y1="75.883" x2="605.5" y2="104.117"/><line x1="606.5" y1="76.045" x2="606.5" y2="103.955"/><line x1="607.5" y1="76.253" x2="607.5" y2="103.747"/><line x1="608.5" y1="76.258" x2="608.5" y2="103.742"/><line x1="609.5" y1="76.316" x2="609.5" y2="103.684"/><line x1="610.5" y1="76.148" x2="610.5" y2="103.852"/><line x1="611.5" y1="76.604" x2="611.5" y2="103.396"/><line x1="612.5" y1="76.515" x2="612.5" y2="103.485"/><line x1="613.5" y1="76.473" x2="613.5" y2="103.527"/><line x1="614.5" y1="76.601" x2="614.5" y2="103.399"/><line x1="615.5" y1="76.646" x2="615.5" y2="103.354"/><line x1="616.5" y1="76.877" x2="616.5" y2="103.123"/><line x1="617.5" y1="76.833" x2="617.5" y2="103.167"/><line x1="618.5" y1="76.701" x2="618.5" y2="103.299"/><line x1="619.5" y1="76.949" x2="619.5" y2="103.051"/><line x1="620.5" y1="76.432" x2="620.5" y2="103.568"/><line x1="621.5" y1="77.306" x2="621.5" y2="102.694"/><line x1="622.5" y1="76.436" x2="622.5" y2="103.564"/><line x1="623.5" y1="77.367" x2="623.5" y2="102.633"/><line x1="624.5" y1="76.805" x2="624.5" y2="103.195"/><line x1="625.5" y1="77.484" x2="625.5" y2="102.516"/><line x1="626.5" y1="77.295" x2="626.5" y2="102.705"/><line x1="627.5" y1="77.394" x2="627.5" y2="102.606"/><line x1="628.5" y1="77.427" x2="628.5" y2="102.573"/><line x1="629.5" y1="76.926" x2="629.5" y2="103.074"/><line x1="630.5" y1="77.21" x2="630.5" y2="102.79"/><line x1="631.5" y1="77.61" x2="631.5" y2="102.39"/><line x1="632.5" y1="77.569" x2="632.5" y2="102.431"/><line x1="633.5" y1="77.734" x2="633.5" y2="102.266"/><line x1="634.5" y1="77.63" x2="634.5" y2="102.37"/><line x1="635.5" y1="77.28" x2="635.5" y2="102.72"/><line x1="636.5" y1="77.874" x2="636.5" y2="102.126"/><line x1="637.5" y1="77.632" x2="637.5" y2="102.368"/><line x1="638.5" y1="78.147" x2="638.5" y2="101.853"/><line x1="639.5" y1="78.018" x2="639.5" y2="101.982"/><line x1="640.5" y1="77.209" x2="640.5" y2="102.791"/><line x1="641.5" y1="78.119" x2="641.5" y2="101.881"/><line x1="642.5" y1="77.571" x2="642.5" y2="102.429"/><line x1="643.5" y1="77.923" x2="643.5" y2="102.077"/><line x1="644.5" y1="77.586" x2="644.5" y2="102.414"/><line x1="645.5" y1="77.706" x2="645.5" y2="102.294"/><line x1="646.5" y1="78.389" x2="646.5" y2="101.611"/><line x1="647.5" y1="77.71" x2="647.5" y2="102.29"/><line x1="648.5" y1="77.808" x2="648.5" y2="102.192"/><line x1="649.5" y1="78.555" x2="649.5" y2="101.445"/><line x1="650.5" y1="77.857" x2="650.5" y2="102.143"/><line x1="651.5" y1="78.149" x2="651.5" y2="101.851"/><line x1="652.5" y1="77.885" x2="652.5" y2="102.115"/><line x1="653.5" y1="78.43" x2="653.5" y2="101.57"/><line x1="654.5" y1="78.323" x2="654.5" y2="101.677"/><line x1="655.5" y1="77.643" x2="655.5" y2="102.357"/><line x1="656.5" y1="79.258" x2="656.5" y2="100.742"/><line x1="657.5" y1="78.081" x2="657.5" y2="101.919"/><line x1="658.5" y1="78.354" x2="658.5" y2="101.646"/><line x1="659.5" y1="78.368" x2="659.5" y2="101.632"/><line x1="660.5" y1="78.379" x2="660.5" y2="101.621"/><line x1="661.5" y1="78.336" x2="661.5" y2="101.664"/><line x1="662.5" y1="79.014" x2="662.5" y2="100.986"/><line x1="663.5" y1="78.207" x2="663.5" y2="101.793"/><line x1="664.5" y1="78.655" x2="664.5" y2="101.345"/><line x1="665.5" y1="78.71" x2="665.5" y2="101.29"/><line x1="666.5" y1="78.89" x2="666.5" y2="101.11"/><line x1="667.5" y1="79.199" x2="667.5" y2="100.801"/><line x1="668.5" y1="78.67" x2="668.5" y2="101.33"/><line x1="669.5" y1="79.097" x2="669.5" y2="100.903"/><line x1="670.5" y1="79.003" x2="670.5" y2="100.997"/><line x1="671.5" y1="78.984" x2="671.5" y2="101.016"/><line x1="672.5" y1="78.934" x2="672.5" y2="101.066"/><line x1="673.5" y1="79.032" x2="673.5" y2="100.968"/><line x1="674.5" y1="79.139" x2="674.5" y2="100.861"/><line x1="675.5" y1="79.14" x2="675.5" y2="100.86"/><line x1="676.5" y1="79.446" x2="676.5" y2="100.554"/><line x1="677.5" y1="78.851" x2="677.5" y2="101.149"/><line x1="678.5" y1="79.73" x2="678.5" y2="100.27"/><line x1="679.5" y1="78.779" x2="679.5" y2="101.221"/><line x1="680.5" y1="79.823" x2="680.5" y2="100.177"/><line x1="681.5" y1="78.849" x2="681.5" y2="101.151"/><line x1="682.5" y1="79.672" x2="682.5" y2="100.328"/><line x1="683.5" y1="78.991" x2="683.5" y2="101.009"/><line x1="684.5" y1="79.816" x2="684.5" y2="100.184"/><line x1="685.5" y1="78.966" x2="685.5" y2="101.034"/><line x1="686.5" y1="79.669" x2="686.5" y2="100.331"/><line x1="687.5" y1="79.2" x2="687.5" y2="100.8"/><line x1="688.5" y1="79.551" x2="688.5" y2="100.449"/><line x1="689.5" y1="79.552" x2="689.5" y2="100.448"/><line x1="690.5" y1="79.292" x2="690.5" y2="100.708"/><line x1="691.5" y1="79.706" x2="691.5" y2="100.294"/><line x1="692.5" y1="79.245" x2="692.5" y2="100.755"/><line x1="693.5" y1="79.817" x2="693.5" y2="100.183"/><line x1="694.5" y1="79.415" x2="694.5" y2="100.585"/><line x1="695.5" y1="79.517" x2="695.5" y2="100.483"/><line x1="696.5" y1="79.813" x2="696.5" y2="100.187"/><line x1="697.5" y1="79.31" x2="697.5" y2="100.69"/><line x1="698.5" y1="79.403" x2="698.5" y2="100.597"/><line x1="699.5" y1="80.013" x2="699.5" y2="99.987"/><line x1="700.5" y1="79.183" x2="700.5" y2="100.817"/><line x1="701.5" y1="79.826" x2="701.5" y2="100.174"/><line x1="702.5" y1="79.837" x2="702.5" y2="100.163"/><line x1="703.5" y1="79.451" x2="703.5" y2="100.549"/><line x1="704.5" y1="79.94" x2="704.5" y2="100.06"/><line x1="705.5" y1="79.549" x2="705.5" y2="100.451"/><line x1="706.5" y1="79.497" x2="706.5" y2="100.503"/><line x1="707.5" y1="79.722" x2="707.5" y2="100.278"/><line x1="708.5" y1="79.999" x2="708.5" y2="100.001"/><line x1="709.5" y1="79.391" x2="709.5" y2="100.609"/><line x1="710.5" y1="79.847" x2="710.5" y2="100.153"/><line x1="711.5" y1="80.059" x2="711.5" y2="99.941"/><line x1="712.5" y1="79.476" x2="712.5" y2="100.524"/><line x1="713.5" y1="79.501" x2="713.5" y2="100.499"/><line x1="714.5" y1="79.919" x2="714.5" y2="100.081"/><line x1="715.5" y1="79.787" x2="715.5" y2="100.213"/><line x1="716.5" y1="79.702" x2="716.5" y2="100.298"/><line x1="717.5" y1="79.626" x2="717.5" y2="100.374"/><line x1="718.5" y1="79.997" x2="718.5" y2="100.003"/><line x1="719.5" y1="79.473" x2="719.5" y2="100.527"/></g></svg>